<?xml version="1.0" encoding="UTF-8"?> <svg xmlns="http://www.w3.org/2000/svg" xmlns:xlink="http://www.w3.org/1999/xlink" viewBox="0 0 82.12 59.6"> <defs> <style>.cls-1,.cls-3,.cls-5,.cls-6,.cls-7,.cls-8{fill:none;}.cls-2,.cls-4{fill:#fff;}.cls-2,.cls-3,.cls-4,.cls-5,.cls-6,.cls-7,.cls-8{stroke:#231f20;stroke-miterlimit:10;}.cls-2{stroke-width:0.5px;}.cls-3,.cls-5,.cls-6,.cls-7{stroke-linecap:round;stroke-width:0.21px;}.cls-3{stroke-dasharray:0.35 0.35;}.cls-4{stroke-width:0.4px;}.cls-6{stroke-dasharray:0.35 0.35;}.cls-7{stroke-dasharray:0.35 0.35;}.cls-8{stroke-width:0.77px;stroke-dasharray:0.01 0.07;}.cls-9{clip-path:url(#clip-path);}.cls-10{fill:#231f20;}</style> <clipPath id="clip-path"> <path class="cls-1" d="M20,31.7s-.8-14.53,11.25-24.49A30.93,30.93,0,0,1,40,2.28a22.62,22.62,0,0,1,4.55-1.15Z"></path> </clipPath> </defs> <title>Asset 1</title> <g id="Layer_2" data-name="Layer 2"> <g id="Layer_1-2" data-name="Layer 1"> <path class="cls-2" d="M58.8,2.22c-.15.75-1.45,1.12-2.92.83s-2.54-1.12-2.39-1.87S54.94.06,56.41.35,59,1.47,58.8,2.22Z"></path> <path class="cls-2" d="M4.4,54.55S10.21,58,19,42.55c0,0-10.11-2.43-13-1.39A11.08,11.08,0,0,0,3.5,42.84,9.94,9.94,0,0,0,.33,49.28C0,51.83,4.4,54.55,4.4,54.55Z"></path> <path class="cls-2" d="M4.4,54.55s-6.91-4.07-1.78-10.27S21.22,43.22,39.29,57c0,0,5.66,3.9,11,1.6S66.22,46.74,68.7,44.44l-36-20.17L20,31.7,6.47,40.23a22.6,22.6,0,0,0-2.22,1.58C2.52,43.29-3.9,50.19,4.4,54.55Z"></path> <path class="cls-2" d="M20,31.7s-.8-14.53,11.25-24.49A30.93,30.93,0,0,1,40,2.28a22.62,22.62,0,0,1,4.55-1.15A34.81,34.81,0,0,1,64.43,4.78c10.81,5.85,23.38,21.08,14.35,44.64,0,0-18.24-7.27-32.76-14S23.07,29.76,20,31.7Z"></path> <path class="cls-3" d="M78.78,48.36S60.54,41.1,46,34.37s-23-5.67-26-3.72"></path> <path class="cls-4" d="M44.52,1.13A57.05,57.05,0,0,0,30.41,30.49"></path> <path class="cls-5" d="M43.33,1.58l-.12.13"></path> <path class="cls-6" d="M43,2A57.86,57.86,0,0,0,29.64,30"></path> <path class="cls-5" d="M29.61,30.14l0,.17"></path> <path class="cls-5" d="M45.43,1l-.12.12"></path> <path class="cls-7" d="M45.08,1.4a58.88,58.88,0,0,0-13.7,28.84"></path> <path class="cls-5" d="M31.35,30.42l0,.18"></path> <path class="cls-4" d="M66.37,5.92s6.9,5.8-3.06,37.12"></path> <path class="cls-3" d="M65.56,5.71s6.9,5.8-3.06,37.11"></path> <circle class="cls-8" cx="55.19" cy="7.43" r="0.86"></circle> <circle class="cls-8" cx="74.43" cy="16.91" r="0.86"></circle> <path class="cls-3" d="M64,43.73C74,12.41,67.1,6.61,67.1,6.61"></path> <path class="cls-3" d="M8.66,38.77a31,31,0,0,1,6.16.71,40.27,40.27,0,0,1,8.78,3.34s13.92,7.72,17.28,10.35a8.51,8.51,0,0,0,8.5,1C50.66,53.63,64,43.73,64,43.73"></path> <path class="cls-3" d="M10.08,38C13,37.6,20.15,39.89,23.6,41.67c0,0,13.92,7.71,17.28,10.35a8.56,8.56,0,0,0,8.5,1c1.1-.49,11.2-7.92,14-10"></path> <path class="cls-3" d="M11.56,37c3.18,0,9.38,2,12.38,3.54,0,0,13.92,7.71,17.27,10.35a8.58,8.58,0,0,0,8.51,1c1-.44,8.91-6.25,12.69-9"></path> <path class="cls-3" d="M12.93,36.15a39.83,39.83,0,0,1,11,3.12S37.86,47,41.21,49.62a8.53,8.53,0,0,0,8.51,1c.9-.4,7.8-5.43,11.8-8.37"></path> <g class="cls-9"> <circle class="cls-8" cx="35.33" cy="4.57" r="0.86"></circle> </g> <path class="cls-10" d="M45,23.34a2.07,2.07,0,0,0-.91-.83,3.36,3.36,0,0,0-1.19-.41c-.1,0-.14,0-.14-.07q1.59-3.78,2.41-5.64l.25-.56c.08-.22.17-.43.26-.64s.18-.39.25-.56l0-.12c.15-.3.5-1.1.51-1.18a.21.21,0,0,0-.06-.18,1.3,1.3,0,0,0-.22-.17.24.24,0,0,0-.36.09c-.09.14-.26.44-.5.9l-.56,1.15-.4.91c-.08.17-.19.43-.34.78l-.35.78c-.11.21-.25.53-.43.95l-.34.82c-.18.39-.45,1-.79,1.8s-.6,1.41-.79,1.8l-1,2.59c0,.09-.1.15-.18.15h-.43a.24.24,0,0,1-.21,0,.33.33,0,0,0-.26,0c-.1,0-.16.1-.18.26l0,.12a.7.7,0,0,0,.52.4h.24s.08,0,.08,0,0,0,0,.1l-.08.2,0,.11,0,.11a.63.63,0,0,0,0,.31,1,1,0,0,0,.46.29l.06,0a.18.18,0,0,0,.2,0s.08-.12.1-.26l0-.1,0-.1.1-.27.1-.27c0-.08.08-.12.13-.11l.62-.05.6-.06a4.79,4.79,0,0,0,1.39-.23,3.12,3.12,0,0,0,.88-.49,2,2,0,0,0,.71-1.77A1.73,1.73,0,0,0,45,23.34Zm-1.22,1.94a5.54,5.54,0,0,1-1.75.38,4.73,4.73,0,0,1-.7.07l-.07,0a.65.65,0,0,1,0-.1c.09-.24.23-.58.43-1l.79-1.95s.05,0,.12,0a2.42,2.42,0,0,1,.8.09,2.91,2.91,0,0,1,.51.22,1.56,1.56,0,0,1,.49.37,1.05,1.05,0,0,1,.26,1A1.51,1.51,0,0,1,43.78,25.28Z"></path> <path class="cls-10" d="M50.22,24.1c0-.07,0-.15,0-.24s0-.19-.06-.31a1,1,0,0,0-.74-.62.76.76,0,0,0-.68.13,2.38,2.38,0,0,0-.51.36,10.47,10.47,0,0,0-1.77,2.12l0,.06s0,0-.09,0,.13-.41.23-.8.17-.73.23-1a.28.28,0,0,0,0-.2.61.61,0,0,0-.3-.23.34.34,0,0,0-.15,0H46.2s-.07,0-.09.08v0l-.34,1.16-.13.46c-.06.23-.14.53-.26.92L45,27.2c0,.06-.05.14-.08.26s-.06.22-.08.31a.46.46,0,0,0,.14.4,1,1,0,0,0,.26.16.48.48,0,0,0,.27,0,.37.37,0,0,0,.19-.17,7.61,7.61,0,0,0,.47-.77,20,20,0,0,1,1.25-1.95A9.16,9.16,0,0,1,49,23.8a1.67,1.67,0,0,1,.48-.3.17.17,0,0,1,0,.12.22.22,0,0,0,0,.1.58.58,0,0,0,.41.48.47.47,0,0,0,.19,0C50.19,24.23,50.23,24.18,50.22,24.1Z"></path> <path class="cls-10" d="M51.18,20.91A3.29,3.29,0,0,0,51.52,22a2.31,2.31,0,0,0,.41.62,1.21,1.21,0,0,0,.39.31.58.58,0,0,0,.17.05s.06,0,.07,0,0-.05,0-.08l-.09-.1a.54.54,0,0,1-.12-.15.12.12,0,0,1,.08,0l.58-.13a5.3,5.3,0,0,0,.82-.28,4.11,4.11,0,0,0,.85-.37,5.2,5.2,0,0,0,.82-.49,4.59,4.59,0,0,0,.7-.67,2.21,2.21,0,0,0,.41-.64l0-.21a1.32,1.32,0,0,0,.05-.49.66.66,0,0,0-.17-.37,1.67,1.67,0,0,0-.55-.37,1.91,1.91,0,0,0-1.27,0,2.68,2.68,0,0,0-.77.41l-.23.19-.09-.37a1.26,1.26,0,0,0-.18-.34,1.28,1.28,0,0,0-.45-.35l-.08,0a.85.85,0,0,0-.5,0,1.09,1.09,0,0,0-.45.28,2.79,2.79,0,0,0-.32.43,3.12,3.12,0,0,0-.27.55,4.32,4.32,0,0,0-.13.44A2.58,2.58,0,0,0,51.18,20.91Zm1.23-1.76a1.45,1.45,0,0,1,.34-.4.6.6,0,0,1,.21-.14s.06,0,.09,0a1.39,1.39,0,0,1,.08.34,2.15,2.15,0,0,1-.12.81c-.07.2-.18.52-.34.95l0,.11s0,.06,0,.11l.08.07.1,0a.15.15,0,0,0,.16,0,.14.14,0,0,0,.07-.06.08.08,0,0,1,.08,0,.11.11,0,0,0,.11-.06l0-.13c0-.06.08-.17.17-.32a4,4,0,0,1,.93-1,2.62,2.62,0,0,1,.79-.42,2.26,2.26,0,0,1,.53-.06h.09l.09,0a.14.14,0,0,1,.09.14.69.69,0,0,1,0,.42,2.5,2.5,0,0,1-.69,1,4.5,4.5,0,0,1-.83.6c-.32.18-.56.32-.73.4a11,11,0,0,1-1.39.52.2.2,0,0,1-.11,0,.12.12,0,0,1,0-.08,3.51,3.51,0,0,1-.19-.89,3.23,3.23,0,0,1,0-.57,5.5,5.5,0,0,1,.24-1Z"></path> <path class="cls-10" d="M55.46,26.75l.25-.48.15-.31a3.76,3.76,0,0,1,.18-.35l.15-.3.27-.54c.13-.24.22-.41.28-.54s.69-1.31,2-3.75a.36.36,0,0,1,0-.09l0-.08a.16.16,0,0,1,0-.07c.25-.48.46-.85.63-1.13l.08-.18a1.21,1.21,0,0,1,.1-.2l0,0a.16.16,0,0,0,0-.22,2.07,2.07,0,0,0-.19-.25.24.24,0,0,0-.35,0,1,1,0,0,0-.2.25,7.94,7.94,0,0,0-.54.84l-.42.76-.42.76c-.56.94-1,1.74-1.35,2.39l-.45.88c-.29.58-.54,1.1-.78,1.57,0,0-.08.16-.25.45a1.67,1.67,0,0,0-.59-.11,2.36,2.36,0,0,0-1.47.46,2.79,2.79,0,0,0-.7.68l-1.52,1.2c-.54.41-.88.66-1,.75a1.31,1.31,0,0,1-.45.21c.15-.43.35-.91.58-1.43l.16-.31.42-.78.67-1.22c.28-.5.48-.88.62-1.13v0a.25.25,0,0,0,0-.19A.93.93,0,0,0,51.2,24l-.1-.06c-.06,0-.12,0-.19.07l-.17.2-.46.73-.84,1.47L49,27.3l-.24.5c0,.08-.09.21-.16.39a4.27,4.27,0,0,0-.21.72,1,1,0,0,0,.24.92.77.77,0,0,0,.31.22.64.64,0,0,0,.49,0,3.44,3.44,0,0,0,.71-.42c.21-.15.56-.42,1-.82a2.33,2.33,0,0,0-.06.35,1,1,0,0,0,0,.5.83.83,0,0,0,.34.29.89.89,0,0,0,.64,0,2.26,2.26,0,0,0,.49-.28,6.59,6.59,0,0,0,.77-.57c-.25.56-.47,1.07-.65,1.55a6.54,6.54,0,0,0-.26.86.51.51,0,0,0,.08.46.62.62,0,0,0,.36.27c.11,0,.16,0,.16-.12l0-.21a23.51,23.51,0,0,1,1-2.33l.9-1.89a.36.36,0,0,0,.27.1q.13,0,.21-.18A.91.91,0,0,0,55.46,26.75Zm-2.24,1.68a8,8,0,0,1-.88.81c-.28.21-.44.3-.49.28s-.13-.31,0-.77a3.79,3.79,0,0,1,.72-1.16,2.66,2.66,0,0,1,.77-.69,2.19,2.19,0,0,1,.58-.21,1.08,1.08,0,0,1,.46.09A7.2,7.2,0,0,1,53.22,28.43Z"></path> <path class="cls-10" d="M60.32,30c0-.12-.09-.18-.16-.15l-.11.06h0a1.18,1.18,0,0,0-.2.15.7.7,0,0,0-.16.1l-.2.14q-.28.16-1.08.69c-.53.34-1,.61-1.29.8L57,31.9l-.13.07a3.65,3.65,0,0,1-.82.29.68.68,0,0,1-.21,0c-.06,0-.12-.1-.17-.23a1.71,1.71,0,0,1-.08-.94,4.38,4.38,0,0,1,.36-1.16.11.11,0,0,1,.07-.08.12.12,0,0,1,.1,0,1.74,1.74,0,0,0,.81.06,2.86,2.86,0,0,0,.75-.27,3.83,3.83,0,0,0,1-.68,2.46,2.46,0,0,0,.58-.88,1,1,0,0,0-.1-1.1,1.46,1.46,0,0,0-.42-.28,1.35,1.35,0,0,0-.43-.06,2,2,0,0,0-1,.4,6,6,0,0,0-1.08,1,6.55,6.55,0,0,0-1,1.72,4.13,4.13,0,0,0-.21.77,2.18,2.18,0,0,0,0,1.05,1.41,1.41,0,0,0,.84,1,2.28,2.28,0,0,0,.3.07s.06,0,.08,0h0a1.69,1.69,0,0,0,.77-.14,4.57,4.57,0,0,0,1-.49l1.58-1.05.17-.12.21-.15.23-.16a.46.46,0,0,0,.14-.21A.58.58,0,0,0,60.32,30Zm-3.85-1.09a7.88,7.88,0,0,1,.94-1.09,3.29,3.29,0,0,1,.74-.54l.21-.1.2-.07a1.19,1.19,0,0,1,0,.46,2.08,2.08,0,0,1-.5.89,3.44,3.44,0,0,1-1.32.91,1.31,1.31,0,0,1-.5.08s0,0,0-.07A1.54,1.54,0,0,1,56.47,28.94Z"></path> </g> </g> </svg> 