<?xml version="1.0" encoding="UTF-8"?> <svg xmlns="http://www.w3.org/2000/svg" xmlns:xlink="http://www.w3.org/1999/xlink" viewBox="0 0 530.95 290.29"> <defs> <style>.cls-1,.cls-4,.cls-5,.cls-7,.cls-9{fill:none;}.cls-2{fill:#221f1f;}.cls-3,.cls-6,.cls-8{fill:#fff;}.cls-3,.cls-4,.cls-5,.cls-6,.cls-7{stroke:#231f20;}.cls-3,.cls-5,.cls-6,.cls-8{stroke-miterlimit:10;}.cls-3{stroke-width:2.62px;}.cls-4,.cls-7,.cls-9{stroke-miterlimit:1;stroke-width:0.52px;}.cls-4,.cls-9{stroke-dasharray:5.25 5.25;}.cls-5,.cls-6{stroke-width:1.31px;}.cls-7{stroke-dasharray:1.05 1.05;}.cls-8,.cls-9{stroke:#221f1f;}.cls-8{stroke-width:0.52px;}.cls-10{fill:url(#New_Pattern_Swatch_1);}</style> <pattern id="New_Pattern_Swatch_1" data-name="New Pattern Swatch 1" width="28.58" height="20.08" patternTransform="translate(83.22 -258.05) scale(5.25)" patternUnits="userSpaceOnUse" viewBox="0 0 28.58 20.08"> <rect class="cls-1" width="28.58" height="20.08"></rect> <rect class="cls-2" width="28.58" height="20.08"></rect> </pattern> </defs> <title>Asset 6</title> <g id="Layer_2" data-name="Layer 2"> <g id="Layer_1-2" data-name="Layer 1"> <path class="cls-3" d="M162.27,15.59V241.85A18.24,18.24,0,0,0,180.46,260h331a18.24,18.24,0,0,0,18.19-18.19V15.59Z"></path> <path class="cls-4" d="M180.46,256.27a14.44,14.44,0,0,1-14.41-14.42V19.37H525.84V241.85a14.43,14.43,0,0,1-14.41,14.42Z"></path> <path class="cls-5" d="M150.49,49.89h-.37a7.78,7.78,0,0,1-1.26-.11c-3.25-2.36-6.71-5.82-6.13-9.49s5-6.88,6.76-7.4c.11,0,.37.68.48,1.21Z"></path> <path class="cls-5" d="M150.49,49.89h-.37a7.78,7.78,0,0,1-1.26-.11c-3.25-2.36-6.71-5.82-6.13-9.49s5-6.88,6.76-7.4c.11,0,.37.68.48,1.21Z"></path> <path class="cls-2" d="M507.44.72s4,5.56,3.42,14.87h20s1.15-8.15-5.14-12.8S507.44.72,507.44.72Z"></path> <path class="cls-2" d="M511.31.72s4,5.56,3.42,14.87"></path> <text></text> <text></text> <rect class="cls-5" x="508.05" y="4.72" width="2.6" height="6.61"></rect> <rect class="cls-5" x="505.43" y="0.69" width="2.6" height="6.61"></rect> <rect class="cls-5" x="501.51" y="4.72" width="2.6" height="6.61"></rect> <rect class="cls-5" x="498.89" y="0.69" width="2.6" height="6.61"></rect> <rect class="cls-5" x="494.97" y="4.72" width="2.6" height="6.61"></rect> <rect class="cls-5" x="492.35" y="0.69" width="2.6" height="6.61"></rect> <rect class="cls-5" x="488.43" y="4.72" width="2.6" height="6.61"></rect> <rect class="cls-5" x="485.81" y="0.69" width="2.6" height="6.61"></rect> <rect class="cls-5" x="481.89" y="4.72" width="2.6" height="6.61"></rect> <rect class="cls-5" x="479.27" y="0.69" width="2.6" height="6.61"></rect> <rect class="cls-5" x="475.35" y="4.72" width="2.6" height="6.61"></rect> <rect class="cls-5" x="472.73" y="0.69" width="2.6" height="6.61"></rect> <rect class="cls-5" x="468.81" y="4.72" width="2.6" height="6.61"></rect> <rect class="cls-5" x="466.18" y="0.69" width="2.6" height="6.61"></rect> <rect class="cls-5" x="462.27" y="4.72" width="2.6" height="6.61"></rect> <rect class="cls-5" x="459.64" y="0.69" width="2.6" height="6.61"></rect> <rect class="cls-5" x="455.73" y="4.72" width="2.6" height="6.61"></rect> <rect class="cls-5" x="453.1" y="0.69" width="2.6" height="6.61"></rect> <rect class="cls-5" x="449.19" y="4.72" width="2.6" height="6.61"></rect> <rect class="cls-5" x="446.56" y="0.69" width="2.6" height="6.61"></rect> <rect class="cls-5" x="442.65" y="4.72" width="2.6" height="6.61"></rect> <rect class="cls-5" x="440.02" y="0.69" width="2.6" height="6.61"></rect> <rect class="cls-5" x="436.11" y="4.72" width="2.6" height="6.61"></rect> <rect class="cls-5" x="433.48" y="0.69" width="2.6" height="6.61"></rect> <rect class="cls-5" x="429.57" y="4.72" width="2.6" height="6.61"></rect> <rect class="cls-5" x="426.94" y="0.69" width="2.6" height="6.61"></rect> <rect class="cls-5" x="423.03" y="4.72" width="2.6" height="6.61"></rect> <rect class="cls-5" x="420.4" y="0.69" width="2.6" height="6.61"></rect> <rect class="cls-5" x="416.49" y="4.72" width="2.6" height="6.61"></rect> <rect class="cls-5" x="413.86" y="0.69" width="2.6" height="6.61"></rect> <rect class="cls-5" x="409.95" y="4.72" width="2.6" height="6.61"></rect> <rect class="cls-5" x="407.32" y="0.69" width="2.6" height="6.61"></rect> <rect class="cls-5" x="403.41" y="4.72" width="2.6" height="6.61"></rect> <rect class="cls-5" x="400.78" y="0.69" width="2.6" height="6.61"></rect> <rect class="cls-5" x="396.87" y="4.72" width="2.6" height="6.61"></rect> <rect class="cls-5" x="394.24" y="0.69" width="2.6" height="6.61"></rect> <rect class="cls-5" x="390.33" y="4.72" width="2.6" height="6.61"></rect> <rect class="cls-5" x="387.7" y="0.69" width="2.6" height="6.61"></rect> <rect class="cls-5" x="383.79" y="4.72" width="2.6" height="6.61"></rect> <rect class="cls-5" x="381.16" y="0.69" width="2.6" height="6.61"></rect> <rect class="cls-5" x="377.25" y="4.72" width="2.6" height="6.61"></rect> <rect class="cls-5" x="374.62" y="0.69" width="2.6" height="6.61"></rect> <rect class="cls-5" x="370.71" y="4.72" width="2.6" height="6.61"></rect> <rect class="cls-5" x="368.08" y="0.69" width="2.6" height="6.61"></rect> <rect class="cls-5" x="364.17" y="4.72" width="2.6" height="6.61"></rect> <rect class="cls-5" x="361.54" y="0.69" width="2.6" height="6.61"></rect> <rect class="cls-5" x="357.63" y="4.72" width="2.6" height="6.61"></rect> <rect class="cls-5" x="355" y="0.69" width="2.6" height="6.61"></rect> <rect class="cls-5" x="351.09" y="4.72" width="2.6" height="6.61"></rect> <rect class="cls-5" x="348.46" y="0.69" width="2.6" height="6.61"></rect> <rect class="cls-5" x="344.55" y="4.72" width="2.6" height="6.61"></rect> <rect class="cls-5" x="341.92" y="0.69" width="2.6" height="6.61"></rect> <rect class="cls-5" x="338.01" y="4.72" width="2.6" height="6.61"></rect> <rect class="cls-5" x="335.38" y="0.69" width="2.6" height="6.61"></rect> <rect class="cls-5" x="331.47" y="4.72" width="2.6" height="6.61"></rect> <rect class="cls-5" x="328.84" y="0.69" width="2.6" height="6.61"></rect> <rect class="cls-5" x="324.92" y="4.72" width="2.6" height="6.61"></rect> <rect class="cls-5" x="322.3" y="0.69" width="2.6" height="6.61"></rect> <rect class="cls-5" x="318.38" y="4.72" width="2.6" height="6.61"></rect> <rect class="cls-5" x="315.76" y="0.69" width="2.6" height="6.61"></rect> <rect class="cls-5" x="311.84" y="4.72" width="2.6" height="6.61"></rect> <rect class="cls-5" x="309.22" y="0.69" width="2.6" height="6.61"></rect> <rect class="cls-5" x="305.3" y="4.72" width="2.6" height="6.61"></rect> <rect class="cls-5" x="302.68" y="0.69" width="2.6" height="6.61"></rect> <rect class="cls-5" x="298.76" y="4.72" width="2.6" height="6.61"></rect> <rect class="cls-5" x="296.14" y="0.69" width="2.6" height="6.61"></rect> <rect class="cls-5" x="292.22" y="4.72" width="2.6" height="6.61"></rect> <rect class="cls-5" x="289.6" y="0.69" width="2.6" height="6.61"></rect> <rect class="cls-5" x="285.68" y="4.72" width="2.6" height="6.61"></rect> <rect class="cls-5" x="283.06" y="0.69" width="2.6" height="6.61"></rect> <rect class="cls-5" x="279.14" y="4.72" width="2.6" height="6.61"></rect> <rect class="cls-5" x="276.52" y="0.69" width="2.6" height="6.61"></rect> <rect class="cls-5" x="272.6" y="4.72" width="2.6" height="6.61"></rect> <rect class="cls-5" x="269.98" y="0.69" width="2.6" height="6.61"></rect> <rect class="cls-5" x="266.06" y="4.72" width="2.6" height="6.61"></rect> <rect class="cls-5" x="263.44" y="0.69" width="2.6" height="6.61"></rect> <rect class="cls-5" x="259.52" y="4.72" width="2.6" height="6.61"></rect> <rect class="cls-5" x="256.9" y="0.69" width="2.6" height="6.61"></rect> <rect class="cls-5" x="252.98" y="4.72" width="2.6" height="6.61"></rect> <rect class="cls-5" x="250.36" y="0.69" width="2.6" height="6.61"></rect> <rect class="cls-5" x="246.44" y="4.72" width="2.6" height="6.61"></rect> <rect class="cls-5" x="243.82" y="0.69" width="2.6" height="6.61"></rect> <rect class="cls-5" x="239.9" y="4.72" width="2.6" height="6.61"></rect> <rect class="cls-5" x="237.28" y="0.69" width="2.6" height="6.61"></rect> <rect class="cls-5" x="233.36" y="4.72" width="2.6" height="6.61"></rect> <rect class="cls-5" x="230.73" y="0.69" width="2.6" height="6.61"></rect> <rect class="cls-5" x="226.82" y="4.72" width="2.6" height="6.61"></rect> <rect class="cls-5" x="224.19" y="0.69" width="2.6" height="6.61"></rect> <rect class="cls-5" x="220.28" y="4.72" width="2.6" height="6.61"></rect> <rect class="cls-5" x="217.65" y="0.69" width="2.6" height="6.61"></rect> <rect class="cls-5" x="213.74" y="4.72" width="2.6" height="6.61"></rect> <rect class="cls-5" x="211.11" y="0.69" width="2.6" height="6.61"></rect> <rect class="cls-5" x="207.2" y="4.72" width="2.6" height="6.61"></rect> <rect class="cls-5" x="204.57" y="0.69" width="2.6" height="6.61"></rect> <rect class="cls-5" x="200.66" y="4.72" width="2.6" height="6.61"></rect> <rect class="cls-5" x="198.03" y="0.69" width="2.6" height="6.61"></rect> <rect class="cls-5" x="194.12" y="4.72" width="2.6" height="6.61"></rect> <rect class="cls-5" x="191.49" y="0.69" width="2.6" height="6.61"></rect> <rect class="cls-5" x="187.58" y="4.72" width="2.6" height="6.61"></rect> <rect class="cls-5" x="184.95" y="0.69" width="2.6" height="6.61"></rect> <rect class="cls-5" x="181.04" y="4.72" width="2.6" height="6.61"></rect> <rect class="cls-5" x="178.41" y="0.69" width="2.6" height="6.61"></rect> <rect class="cls-5" x="174.5" y="4.72" width="2.6" height="6.61"></rect> <rect class="cls-5" x="171.87" y="0.69" width="2.6" height="6.61"></rect> <path class="cls-6" d="M167.48,6.63c-1-1.92-4.1-2.54-5.89-1.22s-2,3.25-2.06,5.2q-.39,9-.7,18a42.71,42.71,0,0,0,0,6.4c.37,3,3.65,4.89,5.66,4.49,2.61-.51,5.15-2.3,5-6-.29-7.85-.67-15.7-1-23.55"></path> <path class="cls-6" d="M168.35,30.52c-.12-3.34-.21-6.69-.36-10-.09-2.08-.28-4.15-.44-6.38-2.21-.85-4.51-1.21-6.93.12q-.37,6.27-.76,12.49c-.12,2-.2,4.05-.35,6.06a4.85,4.85,0,0,0,2.78,4.85,4.67,4.67,0,1,0-.87-8.13c-.48.37-.92.8-1.39,1.21"></path> <path class="cls-6" d="M168.87,13.21c2,.22,3.93,1.06,6.07.39a8,8,0,0,0,4.81-3.35c1.31-2.22.25-4.83-2.4-6.4a7.75,7.75,0,0,0-6.58-1,7.42,7.42,0,0,1-1.39.34c-1.72.16-3.45.28-5.36.44v.95"></path> <path class="cls-6" d="M167.31,9.92a3.34,3.34,0,0,1-6.24.52,3.15,3.15,0,0,1,.87-3.81,3.19,3.19,0,0,1,3.82-.36,3.39,3.39,0,0,0,1.55.51c3.17,0,6.35,0,9.61,0V9.57H165l.79-2.94"></path> <path class="cls-6" d="M164,6.11V12"></path> <path class="cls-6" d="M153.69,33.57s-.73-5.67-5.25-4.3-18.31,12.07-1.2,24c0,0,6.08,1.94,7.08-2.42Zm-3.57,16.32a7.78,7.78,0,0,1-1.26-.11c-3.25-2.36-6.71-5.82-6.13-9.49s5-6.88,6.76-7.4c.11,0,.37.68.48,1.21l.52,15.79Z"></path> <path class="cls-6" d="M161.47,34.58l-10.09-1.26s-3,.36-3,3l.12,14.44s11.4-1.77,13.1-.1S161.47,34.58,161.47,34.58Z"></path> <path class="cls-7" d="M150.61,36.31c0-.53.56-.74.88-.82l8,1.07c.36,4.28.62,8.85.58,11.42a19.17,19.17,0,0,0-2.71-.16,65.12,65.12,0,0,0-6.77.45Z"></path> <path class="cls-8" d="M5.53,256.12s13.71-4.82,79-111.65L20.15,223.81Z"></path> <path class="cls-9" d="M4.78,254.85s11.6-4.52,68.65-95.18"></path> <path class="cls-8" d="M75.94,147.05l28.58-44.48S115.94,83,120.83,82.06l5.31,2Z"></path> <path class="cls-8" d="M76.77,148.46,105.35,104s11.42-19.57,16.31-20.51"></path> <path class="cls-9" d="M121.69,83.1c.65.78,1.17,3.23-5.1,10.25-8.35,9.37-12.17,13-13.53,15.14s-61.13,81.14-61.13,81.14S0,244.51.67,250.69"></path> <path class="cls-6" d="M139,62.06l.17-.12a2.57,2.57,0,0,0,1-1.27l.71-2a.46.46,0,0,1,.19-.22,2.2,2.2,0,0,0,.46-.39,11.38,11.38,0,0,0,4.24-20.87l-.41,1a10.32,10.32,0,0,1-3.09,18.62l1.06-2.35a1.53,1.53,0,0,0-.65-2l-1-.54a2.83,2.83,0,0,0,1.06-2.35c-.31-2.21-4.91-3.72-6.51-2.21a2.45,2.45,0,0,0-.66,1.76l-1.19-.3a1.75,1.75,0,0,0-2,.87L131,52.44a10.3,10.3,0,0,1,8.05-15.86l.4-1.09a11.4,11.4,0,0,0-8.42,18.82L130.43,56a1.9,1.9,0,0,0,.25,1.76l.23.31c-5,6.63-8.87,12-11.76,15.65-.27.34-.61.78-1,1.34L120.73,78a.94.94,0,0,1,0-.09c.2-.61-.34.62,1.7-2.63,1.07-1.69,2.5-3.14,3.72-4.73,1-1.3,1.37-1.8,2.12-2a4,4,0,0,1,3,.89A5.37,5.37,0,0,1,133,71.31c.87,1.67.37,2.8.16,6.88-.17,3.38.13,3.43-.28,4.5a7.56,7.56,0,0,1-4,4.1,6.12,6.12,0,0,1-2.48.48A6.68,6.68,0,0,1,121.81,85c-1.41-1.54-1.78-4.36-1.2-6.57l-2.65-3a8.9,8.9,0,0,0-1.33,4.06,9.73,9.73,0,0,0,1.25,5.19,10.82,10.82,0,0,0,4.58,4.52,10.26,10.26,0,0,0,8.08.54,10.52,10.52,0,0,0,5.55-5.42c1.42-2.86.84-5.36,1.23-8.12Q138.34,69,139,62.06Z"></path> <path class="cls-8" d="M128.09,88.09c-.69,1.26-1.58,2.57-2.52,4-1.31,1.89-2.89,3.89-4.46,5.83-5.25,6.35-10.92,12-10.92,12s-36.72,49.17-72.35,98C6.88,250.17,5.31,255.41,5.47,256L.27,250c-.68-6.14,41.24-61,41.24-61s59.76-79,61.13-81.17,5.14-5.72,13.43-15l.11-.11a31.87,31.87,0,0,0,4.4-5.93,2.34,2.34,0,0,0,.27-.52,6.57,6.57,0,0,0,.78-2.68,1.91,1.91,0,0,0-.26-1c0-.1,0-.26.11-.42l7.87.16C130,83.47,129.45,85.57,128.09,88.09Z"></path> <path class="cls-4" d="M123.54,83.08a25.8,25.8,0,0,1-3.29,8.39c-.91,1.47-1.92,2.74-9.8,10.53-3.45,3.41-3.65,3.55-4.63,4.63a64.4,64.4,0,0,0-6.67,8.7c-8.35,12.92-18.55,24.54-27.78,36.86-9.64,12.88-5.71,7.51-28,37-13.6,18.06-20.34,27.05-29.07,40-4.75,7-8.54,13-11.11,17-.44,1-.87,2-1.3,3l2.22,2.6c1.38-1.81,3.46-4.57,5.93-8,6.83-9.41,9.87-14.4,14.81-21.48,3.91-5.59,5.19-7,13-17.22s14.26-19.05,27.39-36.94c6.27-8.54,10.55-14.43,19.64-26.77,0,0,3.88-5.26,9.63-13,5.57-7.45,8.67-11.55,12.23-16.11,1.69-2.18,3.11-4,4.07-5.19,3-3.78,4.23-4.45,8-8.7A49.24,49.24,0,0,0,124,92a32,32,0,0,0,3.7-8.52"></path> <path class="cls-10" d="M339.29,159.15c-.31-.21-.45-.43-.41-.68.06-1.16.14-2,.2-2.63v-.2l.16-2.79.21-4.64.25-4.39.21-5.06.21-4.44.25-4.44.11-2.22.26-6.4c0-.65.05-1.63.05-2.94s0-2.24-.05-2.89a38.62,38.62,0,0,0-.31-4.85,20.3,20.3,0,0,0-.68-3.25.82.82,0,0,0-.1-.37,8,8,0,0,0-1.34,1.4,22.32,22.32,0,0,0-2.17,3.87,97.11,97.11,0,0,0-4.85,12.8l-1.08,3.66c-.56,1.86-1,3.26-1.29,4.19-.08.2-.27.82-.6,1.86a28.4,28.4,0,0,1-1.11,2.94,6,6,0,0,1-1,1.7,1.47,1.47,0,0,1-1,.52,1.62,1.62,0,0,1-.46-.11,3.8,3.8,0,0,1-2.07-2,15.22,15.22,0,0,1-1-3.71c-.34-2-.64-4.38-.87-7.23q-.53-6-.88-8.83c-.14-1.06-.26-1.91-.36-2.52a13.07,13.07,0,0,0-.67-2.12c-.25-.55-.49-.85-.73-.88a4.58,4.58,0,0,0-.39.77,5.22,5.22,0,0,1-.28.67,56.44,56.44,0,0,0-1.49,5.58c-.21.82-.54,2.39-1,4.7-.06.41-.14,1-.2,1.65-.28,1.54-.47,2.82-.57,3.82l-.05.15-.31,3.2-.15,1.55c0,.31-.09.87-.16,1.68s-.11,1.54-.11,2.19l0,1.24c-.06,1.1-.1,1.91-.1,2.43,0,2.13,0,3.75.05,4.85q.1,3.51.47,7.07l.57,4.38v.16a.28.28,0,0,1-.32.31H314a1.64,1.64,0,0,1-.93-.31.92.92,0,0,1-.31-.46A15.71,15.71,0,0,1,312,155a39.88,39.88,0,0,1-.67-5.72c-.07-.93-.14-2.4-.21-4.39v-3.71c0-2.07.22-5.17.57-9.29.1-1.42.26-2.78.46-4.08.21-1.62.47-3.24.77-4.86a73,73,0,0,1,2.22-9.39c.18-.48.47-1.2.88-2.17l.21-.41a1.83,1.83,0,0,1,1.6-1l.46,0a3.3,3.3,0,0,1,1.92,1.5,11.06,11.06,0,0,1,1.54,4.28,3.41,3.41,0,0,1,.11.52,57.75,57.75,0,0,1,1,7.48c.14,1.58.38,4,.73,7.12.14,1.62.34,3.31.62,5.06l.26,1.14a8.13,8.13,0,0,0,.61-1.19,42.8,42.8,0,0,0,1.61-4.75A11.11,11.11,0,0,0,327,130l.62-2c.17-.55.54-1.8,1.13-3.76s1.17-3.77,1.76-5.42a95.66,95.66,0,0,1,4-10,17.85,17.85,0,0,1,2.07-3.3,4.55,4.55,0,0,1,1.44-1.19,2.53,2.53,0,0,1,1-.21,2.59,2.59,0,0,1,1.5.47,5.71,5.71,0,0,1,1.6,2,10.13,10.13,0,0,1,.93,2.84,29.31,29.31,0,0,1,.47,3.51,53.48,53.48,0,0,1,.25,5.53l0,3.35-.1,3-.26,5.21-.21,3.87-.2,3.82-.26,3.2c0,.41,0,1-.11,1.86l-.15,1.86-.15,1.9-.32,4.13-.15,1.71c-.07,1-.14,1.8-.21,2.32l-.1,1.18c0,.48-.12,1.29-.26,2.43v.1a1.25,1.25,0,0,1-.26.78,1.06,1.06,0,0,1-.77.2A1.45,1.45,0,0,1,339.29,159.15Z"></path> <path class="cls-10" d="M350.65,148.51a1.26,1.26,0,0,1-.73-.87c0-.24-.07-.53-.1-.85s-.05-.58-.05-.75l-.26-3.36q-.11-1.65-.21-2.58l-.1-1.29-.26-3.25v-.1a.3.3,0,0,1,.15-.29.84.84,0,0,1,.21-.08,1.58,1.58,0,0,1,.41-.05,1.74,1.74,0,0,1,1,.32.75.75,0,0,1,.25.46c.14.79.27,1.73.39,2.81s.18,1.83.18,2.24q.21,0,.21-.18v-.17a28.31,28.31,0,0,1,2.48-7.08,7.66,7.66,0,0,1,.93-1.39,2.18,2.18,0,0,1,1.59-1,2.81,2.81,0,0,1,2.48.88c.17.27.32.51.44.72s.24.39.34.57,0,.36-.21.46a1.67,1.67,0,0,1-.51.1,1.65,1.65,0,0,1-1.5-.82.62.62,0,0,1-.13-.23.61.61,0,0,0-.23-.29,4.92,4.92,0,0,0-.93,1.24,25.16,25.16,0,0,0-2.22,5.68,51.57,51.57,0,0,0-1.29,6.14,24.08,24.08,0,0,1-.47,2.37,1,1,0,0,1-.31.62,1.16,1.16,0,0,1-.72.16A2.17,2.17,0,0,1,350.65,148.51Z"></path> <path class="cls-10" d="M364.53,152.23a6,6,0,0,1-2.22-.46,2.65,2.65,0,0,1-1.55-1.56,1.8,1.8,0,0,1-.16-.77,1.72,1.72,0,0,1,0-.46,7,7,0,0,1,1.3-2.89,21.74,21.74,0,0,1,3.25-3.3l.31-.26c.1-.07.15-.13.15-.19s0-.1-.1-.17l-.16-.16a5.49,5.49,0,0,0-2.32-1.14c-.13,0-.4-.11-.8-.25s-.74-.28-1.06-.42l-.51-.3a1.25,1.25,0,0,1-.52-1.3,8.7,8.7,0,0,1,2.48-4.38,16.9,16.9,0,0,1,3.09-2.53,2.35,2.35,0,0,1,1-.26,1.72,1.72,0,0,1,.46,0,1.87,1.87,0,0,1,.62.31.25.25,0,0,1,0,.47,4.38,4.38,0,0,0-1.39,1.06,18.91,18.91,0,0,0-2.22,2.5,12.31,12.31,0,0,0-1.76,3.15,1,1,0,0,0,0,.41.37.37,0,0,0,.36.41c.56.17,1.05.35,1.5.52a7.08,7.08,0,0,1,2.27,1c.17.1.31.1.41,0l.89-.62a33.13,33.13,0,0,1,3.56-2.27,2.44,2.44,0,0,1,1-.31c.34,0,.51.14.51.41s-.35.8-1,1.24l-.16.11c-.07.06-.39.29-1,.67l-1.3.92a8.94,8.94,0,0,1-1.29,1,.25.25,0,0,0,0,.36,7.5,7.5,0,0,1,1.19,2.16,5.33,5.33,0,0,1,.36,1.81,5.08,5.08,0,0,1-1,3.15,5.58,5.58,0,0,1-2.27,1.86A5.76,5.76,0,0,1,364.53,152.23Zm1.39-2a5.12,5.12,0,0,0,1.65-3.71,6.13,6.13,0,0,0-.1-.93,6.05,6.05,0,0,0-.72-1.86,16.5,16.5,0,0,0-3.31,3.83,3.52,3.52,0,0,0-.67,2.16,2.33,2.33,0,0,0,.1.73,1.07,1.07,0,0,0,1.4.77A4.18,4.18,0,0,0,365.92,150.21Z"></path> <path class="cls-10" d="M378.87,152.55a3.45,3.45,0,0,0,.55.37l.37.19c.19.12.25.22.19.28s-.06.09-.19.09a1.63,1.63,0,0,1-.65.09,4.19,4.19,0,0,1-1.58-.56,5.66,5.66,0,0,1-2-1.48,11.85,11.85,0,0,1-2.41-3.07,9.07,9.07,0,0,1-1.12-3.62,10.06,10.06,0,0,1-.19-1.58,10.72,10.72,0,0,1,.19-2,8.43,8.43,0,0,1,.56-1.77,2.78,2.78,0,0,1,1.11-1.39,2.61,2.61,0,0,1,1.58-.56h.28a6.9,6.9,0,0,1,2,.56,3.4,3.4,0,0,1,.93.93l.74,1a4.6,4.6,0,0,0,.47-.84,9.86,9.86,0,0,1,1.95-2.23,6.68,6.68,0,0,1,4.09-1.57,5.4,5.4,0,0,1,2.23.55,2.31,2.31,0,0,1,.93.93,3.67,3.67,0,0,1,.46,1.67l.09.65a7.11,7.11,0,0,1-.55,2.61,15.65,15.65,0,0,1-1.4,3,20.9,20.9,0,0,1-2,2.5,11.63,11.63,0,0,1-2.32,2.23,17.32,17.32,0,0,1-2.23,1.86c-1,.68-1.56,1-1.68,1.12A.37.37,0,0,0,378.87,152.55Zm-3.72-6.13a9.68,9.68,0,0,0,.65,1.86,11.59,11.59,0,0,0,1.67,2.6c.12.12.22.19.28.19a1,1,0,0,0,.37-.19q2.14-1.68,3.81-3.25c.43-.5,1-1.21,1.77-2.14a13.35,13.35,0,0,0,1.95-3,8.07,8.07,0,0,0,1-4.09,2.62,2.62,0,0,0-.38-1.39.53.53,0,0,0-.46-.29h-.37l-.18.1a10.13,10.13,0,0,0-1.68.84,8.33,8.33,0,0,0-2,2.32,14.68,14.68,0,0,0-1.77,4.36c-.06.56-.09,1-.09,1.21v.47a.25.25,0,0,1-.28.28.52.52,0,0,0-.28.18.5.5,0,0,1-.65.47l-.32,0a.56.56,0,0,1-.32-.14c-.26-.06-.32-.15-.19-.28v-.46c0-1.55,0-2.7-.1-3.44a7.19,7.19,0,0,0-.55-2.69,5,5,0,0,0-.66-.93.22.22,0,0,0-.36,0,2.21,2.21,0,0,0-.47.65,6,6,0,0,0-.65,1.67c-.06.8-.09,1.39-.09,1.76A17,17,0,0,0,375.15,146.42Z"></path> </g> </g> </svg> 