<?xml version="1.0" encoding="UTF-8"?> <svg xmlns="http://www.w3.org/2000/svg" viewBox="0 0 61.61 67.49"> <defs> <style>.cls-1,.cls-2{fill:#fff;}.cls-1,.cls-2,.cls-3{stroke:#231f20;stroke-miterlimit:10;}.cls-1{stroke-width:0.24px;}.cls-2{stroke-width:0.5px;}.cls-3{fill:none;stroke-linecap:round;stroke-width:0.15px;stroke-dasharray:0.5 0.5 0.5 0.5;}.cls-4,.cls-5{fill:#221e1f;}.cls-4{opacity:0.8;isolation:isolate;}.cls-6{fill:#211e1f;}</style> </defs> <g id="Layer_2" data-name="Layer 2"> <g id="Layer_1-2" data-name="Layer 1"> <path class="cls-1" d="M16.45,2l3.6-1.3S23.65,4,30.75,4,42,.74,42,.74l4.3,1.8s.5,12.9-15.5,12.9S16.45,2,16.45,2Z"></path> <path class="cls-2" d="M30.85,4.44c-7.2,0-11.2-3.2-11.3-3.3l.5-.7A18.82,18.82,0,0,0,31,3.54,18.68,18.68,0,0,0,41.75.44l.5.8A20.71,20.71,0,0,1,30.85,4.44Z"></path> <path class="cls-3" d="M19.85,1.64s3.6,3.3,11,3.3,10.8-3.2,10.8-3.2"></path> <path class="cls-2" d="M12.25,2.94c-.8,0-7.8,8-10.7,11.7a8.18,8.18,0,0,1-1.2,1.3L4,20.54l5.1,6.6,6.1-3Z"></path> <path class="cls-3" d="M10.15,26.54l-3.8-4.7a14.31,14.31,0,0,1-1.1-1.5l-4.2-5.6"></path> <path class="cls-3" d="M10.55,26.34l-3.8-4.7a14.31,14.31,0,0,1-1.1-1.5l-4.2-5.6"></path> <path class="cls-2" d="M49.35,2.94c.8,0,7.8,8,10.7,11.7a8.18,8.18,0,0,0,1.2,1.3l-3.6,4.6-5.1,6.6-6.1-3Z"></path> <path class="cls-3" d="M51.35,26.54l3.8-4.7a14.31,14.31,0,0,0,1.1-1.5l4.2-5.6"></path> <path class="cls-3" d="M51.05,26.34l3.8-4.7a14.31,14.31,0,0,0,1.1-1.5l4.2-5.6"></path> <path class="cls-2" d="M48.55,65.64c-.1-6.7-.6-9-1.1-22.3s.1-18.7.1-18.7c-.6-5.3,1.9-21.8,1.9-21.8L42.35.44s-.5,12.3-11.5,12.3S19.35.44,19.35.44L13,2.64l-.8.3s2.6,16.5,1.9,21.8c0,0,.6,5.4.1,18.7s-1,15.6-1.1,22.3a128,128,0,0,0,17.7,1.5A122.43,122.43,0,0,0,48.55,65.64Z"></path> <path class="cls-2" d="M30.85,12.94c-11.3,0-12-12.2-12-12.3l1-.3a15.65,15.65,0,0,0,1.6,5.8,9.82,9.82,0,0,0,9.4,5.9,9.82,9.82,0,0,0,9.4-5.9,17.76,17.76,0,0,0,1.6-5.8l1,.3C42.85.84,42.15,12.94,30.85,12.94Z"></path> <path class="cls-3" d="M18.35.84s.5,12.6,12.5,12.6S43.35.84,43.35.84"></path> <path class="cls-3" d="M13.45,64.24s5.2,1.6,17.4,1.6,17.7-1.6,17.7-1.6"></path> <path class="cls-3" d="M13.45,63.84s5.2,1.6,17.4,1.6,17.7-1.6,17.7-1.6"></path> <path class="cls-4" d="M24.65,36.84a1.1,1.1,0,0,0-.3.7c0,.4-.1.6.1,1s.4.4.4.4a.31.31,0,0,0,.2-.1c.2-.1.1,0-.1-.2a1.93,1.93,0,0,1-.3-1,1.07,1.07,0,0,1,.2-.6C25,36.94,24.65,36.84,24.65,36.84Z"></path> <path class="cls-5" d="M28.25,23.44c.3-.1.3-.4.2-.9,0-.2-.1-.2-.3-.2s-.3.4-.2.9C28,23.44,28.05,23.44,28.25,23.44Z"></path> <path class="cls-5" d="M38.45,22.54c0-.1-.1-.1-.2-.1a.22.22,0,0,0-.2.2,2.94,2.94,0,0,1-.7,1.7,2.1,2.1,0,0,1-1.1.8,1,1,0,0,1-.9-.2c-.3-.2-.4-.5-.5-1v-.3A5.42,5.42,0,0,0,36,23a1,1,0,0,0,.4-1.1c0-.2-.2-.3-.3-.4a1.48,1.48,0,0,0-.7-.1,1.09,1.09,0,0,0-.8,1,3.75,3.75,0,0,0-.1,1.1,9.68,9.68,0,0,1-1.9,1.8c-.1-.3-.1-.6-.2-1a28.8,28.8,0,0,1-.5-3.3,18.48,18.48,0,0,0-.3-2.4c0-.1-.1-.1-.1-.2h-.2a.22.22,0,0,0-.2.2v1c.2,4.8-.1,7.3-1.1,7.5-.3.1-.5-.2-.7-.7a10.38,10.38,0,0,1-.3-1.2v-.5c0-.1,0-.1-.1-.1s-.1-.1-.2,0-.1,0-.2.1h0a.77.77,0,0,0-.3.1.76.76,0,0,1-.4.1.68.68,0,0,1-.9-.5c0-.1-.1-.2-.2-.1s-.2.1-.2.3a12,12,0,0,1,0,2.7c-.1.5-.2.8-.4.8s-.2-.1-.3-.2a5.35,5.35,0,0,1-.6-1.6c-.1-.2-.1-.4-.2-.5s-.1-.2-.3-.2a.22.22,0,0,0-.2.2c-.1,1.1-.2,1.7-.5,1.8a.54.54,0,0,1-.4-.3,11.06,11.06,0,0,1-.4-1.3c0-.2-.2-.3-.4-.2s-.2.1-.2.3c.3,1.4.7,2.1,1.4,1.9.4-.1.6-.6.7-1.4.2.6.3,1,.4,1.2a1.54,1.54,0,0,0,.4.6.66.66,0,0,0,.6.1c.4-.1.6-.5.7-1.2a12.17,12.17,0,0,0,.1-2.1,1,1,0,0,0,.9.1,1.42,1.42,0,0,0,.6-.2v.3a5.27,5.27,0,0,0,.5,1.5c.3.6.7.9,1.2.7.9-.2,1.4-1.8,1.5-4.9q.15,1.05.3,1.8c.1.4.1.7.2,1-.1,0-.1.1-.1.2v.1a.35.35,0,0,0,.2.1h.1c.6,2.5,1.1,4.2,1.7,4.9a1,1,0,0,0,.8.5c.2,0,.3-.1.4-.3a1.63,1.63,0,0,0,0-1.2,4.76,4.76,0,0,0-.5-1.4,6.23,6.23,0,0,0-1.9-2.7,7.89,7.89,0,0,0,1.8-1.6h0a2.33,2.33,0,0,0,.7,1.3,1.52,1.52,0,0,0,1.3.3,2.22,2.22,0,0,0,1.3-.9,2.28,2.28,0,0,0,.6-1.2A3.38,3.38,0,0,1,38.45,22.54Zm-4.4,5.9a9.29,9.29,0,0,1,.4,1.3,1.35,1.35,0,0,1,0,.9h-.1c-.1,0-.3-.1-.5-.4a15,15,0,0,1-1.3-4.1A7.63,7.63,0,0,1,34.05,28.44Zm.8-6.1c.1-.4.3-.7.5-.7s.4,0,.5.3-.1.6-.6.9c-.1.1-.3.1-.4.2A.85.85,0,0,1,34.85,22.34Z"></path> <path class="cls-5" d="M25.35,36.34c.7-.4,1-1.5,1-3.5,0-.1,0-.2.1-.2h.2a.1.1,0,0,1,.1.1,13.24,13.24,0,0,1,.2,1.6c.1.8.2,1.6.3,2.3,0,.2.1.4.1.7a5.14,5.14,0,0,0,1.4-1.3.1.1,0,0,0,.1-.1c.1,0,.2,0,.2.1s0,.1-.1.2a5.14,5.14,0,0,1-1.4,1.3,4.57,4.57,0,0,1,1.3,1.9,2.24,2.24,0,0,1,.3,1,1.07,1.07,0,0,1,0,.8c-.1.1-.1.2-.3.2a.86.86,0,0,1-.6-.3,8.15,8.15,0,0,1-1.1-3.4h-.1c-.1,0-.1,0-.1-.1v-.1a.1.1,0,0,1,.1-.1,1.7,1.7,0,0,1-.1-.7c-.1-.6-.2-1.2-.3-2a2.87,2.87,0,0,1-1,1.9m-.1,0,.3.6a1.67,1.67,0,0,1-.1,1.2.88.88,0,0,1-.7.6.62.62,0,0,1-.7-.2,1.61,1.61,0,0,1-.4-.7,1.15,1.15,0,0,1,.1-1,.66.66,0,0,1,.5-.4h.3a.35.35,0,0,1-.1-.2v-.2c0-.1.1-.1.2-.1a.37.37,0,0,1,.3.1m-.2,2.4c.2,0,.3-.2.4-.5a1.39,1.39,0,0,0,0-.9.86.86,0,0,0-.3-.6h-.3v.1c0,.2-.1.3-.4.4a2.77,2.77,0,0,0-.1.9.76.76,0,0,0,.2.5A1.09,1.09,0,0,0,25.05,38.74Zm3.7,2.5h0q.15-.15,0-.6l-.3-.9a8.64,8.64,0,0,0-1-1.6,10,10,0,0,0,.9,2.8C28.55,41.14,28.65,41.24,28.75,41.24Z"></path> <path class="cls-5" d="M29.15,40.54c-.1-.3-.2-.6-.3-1a5.33,5.33,0,0,0-1.3-1.9,5.35,5.35,0,0,0,1.4-1.3c.1-.1.1-.1.1-.2s-.1-.1-.2-.1a.1.1,0,0,0-.1.1,4,4,0,0,1-1.4,1.3c0-.2-.1-.4-.1-.7-.1-.7-.2-1.5-.3-2.3s-.2-1.4-.2-1.6a.1.1,0,0,0-.1-.1h-.2c-.1,0-.1.1-.1.2.1,1.9-.3,3-.9,3.4.1.1.1.2.2.3a2.61,2.61,0,0,0,1-1.8c.1.8.2,1.5.3,2,0,.2.1.5.1.7a.1.1,0,0,0-.1.1v.1a.1.1,0,0,0,.1.1h.1a14.64,14.64,0,0,0,1.1,3.4q.3.45.6.3c.1,0,.2-.1.3-.2A1.07,1.07,0,0,0,29.15,40.54Zm-.3.7h0c-.1,0-.2-.1-.4-.3a11.38,11.38,0,0,1-.9-2.8,4.88,4.88,0,0,1,1,1.6l.3.9Z"></path> <path class="cls-5" d="M32.45,38.94c-.3.1-.7-1.2-1.2-3.7-.2-.8-.3-1.5-.4-2a8.17,8.17,0,0,1-2.1.7c-.4.1-.6,0-.6-.1s0-.2.1-.2h.3c.3-.1,1-.3,2.3-.8a3.22,3.22,0,0,1-.1-.8c0-.1,0-.2.1-.2s.2,0,.2.1a5.64,5.64,0,0,1,.1.7l2.1-.9c.1,0,.1-.1.2-.1s.1,0,.2.1,0,.1-.1.2a22.08,22.08,0,0,1-2.4,1,17.66,17.66,0,0,0,.4,2,15.06,15.06,0,0,0,.9,3.3.37.37,0,0,1,.1.3C32.65,38.84,32.55,38.84,32.45,38.94Z"></path> <path class="cls-6" d="M32.45,38.94q-.3,0-.6-.9c-.2-.6-.4-1.6-.7-2.8-.2-.8-.3-1.4-.4-2a16.36,16.36,0,0,1-2.1.7c-.1,0-.6.1-.6-.1s0-.2.2-.3h.3c.3-.1,1-.3,2.2-.8a2.81,2.81,0,0,1-.1-.8.22.22,0,0,1,.2-.2h.2l.1.1a3.55,3.55,0,0,1,.1.7l2.1-.9c.1,0,.1-.1.2-.1h.1l.1.1c0,.1,0,.2-.1.2-.6.3-1.3.6-2.3,1,.1.6.2,1.3.3,2a15.06,15.06,0,0,0,.9,3.3.37.37,0,0,1,.1.3c0,.4,0,.5-.2.5ZM31,33.14h0c.1.6.2,1.3.4,2.1a18.67,18.67,0,0,0,.7,2.8c.3.8.4.8.5.8h0a.1.1,0,0,0,.1-.1c0-.1-.1-.2-.1-.3a15.06,15.06,0,0,1-.9-3.3c-.1-.7-.3-1.4-.4-2h0c1-.4,1.8-.8,2.3-1a.1.1,0,0,0,.1-.1v-.1h-.1c-.1,0-.1,0-.2.1-.7.3-1.5.6-2.1.9h-.1v-.1a3.55,3.55,0,0,0-.1-.7V32H31c-.1,0-.1,0-.1.1a2.81,2.81,0,0,0,.1.8h0a10.14,10.14,0,0,1-2.3.8h-.2a.1.1,0,0,0-.1.1c0,.1.3.1.5.1s1-.4,2.1-.8Z"></path> <path class="cls-5" d="M33.25,37.64c-.2,0-.6-1-1-3.2-.2-1-.4-2.2-.6-3.5v-.1l.1-.1H32a.1.1,0,0,1,.1.1,9.85,9.85,0,0,1,.2,1.7c.1.6.1,1.1.2,1.7.2,1,.4,1.8.6,2.5q.3-2.25.9-2.4a.6.6,0,0,1,.4.1l.3.3a.76.76,0,0,1,.2.5c.1.1.1.3.2.4s.1.2.2.3a.37.37,0,0,0,.3.1c.2,0,.3-.2.5-.4a2.82,2.82,0,0,0,.4-1.1.1.1,0,0,1,.1-.1h.1v.3c-.1.4-.3.8-.4,1.1a1.7,1.7,0,0,1-.6.6.75.75,0,0,1-.5-.1,1.38,1.38,0,0,1-.3-.4,2.19,2.19,0,0,0-.3-.5,1.69,1.69,0,0,1-.2-.5c-.1-.1-.2-.2-.3-.2s-.2.3-.4.7a6.93,6.93,0,0,0-.3,2C33.35,37.64,33.25,37.64,33.25,37.64Z"></path> <path class="cls-6" d="M33.15,37.74c-.2,0-.5-.4-1-3.2-.2-1-.4-2.2-.6-3.5v-.2l.1-.1h.2a.1.1,0,0,1,.1.1,9.85,9.85,0,0,1,.2,1.7c.1.6.1,1.1.2,1.7.2.9.3,1.6.5,2.2.2-1.4.5-2.1.9-2.2.2,0,.3,0,.4.1a1.38,1.38,0,0,1,.3.4.76.76,0,0,1,.2.5c.1.1.1.3.2.4s.1.2.2.3a.31.31,0,0,0,.2.1c.1,0,.3-.2.4-.4a3,3,0,0,0,.4-1c0-.1.1-.1.2-.2h.1l.1.1v.2c-.1.4-.3.8-.4,1.1a1.34,1.34,0,0,1-.7.6.75.75,0,0,1-.5-.1c-.1-.1-.3-.2-.4-.4l-.3-.6a1.69,1.69,0,0,1-.2-.5c-.1-.1-.1-.2-.2-.2a2.28,2.28,0,0,0-.3.7,6.93,6.93,0,0,0-.3,2c.2.3.2.4,0,.4Zm-1.3-6.9h-.1v.1c.2,1.3.4,2.4.6,3.5.6,2.9.9,3.2.9,3.2h0c.1,0,.1,0,.1-.1a15.17,15.17,0,0,1,.3-2.1c.2-.7.3-.8.4-.8s.2,0,.3.2a.76.76,0,0,1,.2.5,2.19,2.19,0,0,0,.3.5,1.38,1.38,0,0,0,.3.4.75.75,0,0,0,.5.1c.2,0,.4-.2.6-.5a2.82,2.82,0,0,0,.4-1.1v-.3h-.1c-.1,0-.1,0-.1.1-.1.4-.3.8-.4,1.1s-.3.4-.5.4a.37.37,0,0,1-.3-.1c-.1-.1-.2-.2-.2-.3s-.1-.3-.2-.4-.1-.3-.2-.5l-.3-.3a.37.37,0,0,0-.3-.1c-.2,0-.6.5-.8,2.4v.2l-.1-.2a18.53,18.53,0,0,1-.6-2.5,8.81,8.81,0,0,1-.2-1.7c-.1-.6-.1-1.1-.2-1.7-.2.1-.2.1-.3,0Z"></path> <path class="cls-5" d="M38,36.14a1,1,0,0,1-.9-.2,1.93,1.93,0,0,1-.5-.9,2.44,2.44,0,0,1,0-1.2.88.88,0,0,1,.6-.7.9.9,0,0,1,.5.1c.1.1.2.2.2.3a.67.67,0,0,1-.3.8,4.35,4.35,0,0,1-.7.4v.2c.1.3.2.6.4.7a.66.66,0,0,0,.6.1,1.77,1.77,0,0,0,.8-.5,3.34,3.34,0,0,0,.5-1.2.1.1,0,0,1,.1-.1c.1,0,.1,0,.1.1a1.76,1.76,0,0,1-.1.6,2,2,0,0,1-.4.8A1.85,1.85,0,0,1,38,36.14Zm-1.1-1.7c.1,0,.2-.1.3-.1.3-.2.5-.4.4-.6s-.1-.2-.3-.2-.3.2-.4.5Z"></path> <path class="cls-6" d="M37.65,36.24a.91.91,0,0,1-.7-.3,1.35,1.35,0,0,1-.5-.9,2.44,2.44,0,0,1,0-1.2.88.88,0,0,1,.6-.7.75.75,0,0,1,.5.1l.3.3a.67.67,0,0,1-.3.8,4.35,4.35,0,0,1-.7.4v.2a2.39,2.39,0,0,0,.3.7.66.66,0,0,0,.6.1,1.16,1.16,0,0,0,.7-.5,2.1,2.1,0,0,0,.4-1.1.22.22,0,0,1,.2-.2h.1l.1.1a1.76,1.76,0,0,1-.1.6,2,2,0,0,1-.4.8,1.85,1.85,0,0,1-.9.7h0C37.85,36.24,37.75,36.24,37.65,36.24Zm-.3-3h-.2c-.3.1-.4.3-.5.6a2.05,2.05,0,0,0,0,1.1,1.35,1.35,0,0,0,.5.9.9.9,0,0,0,.9.2h0a2.36,2.36,0,0,0,.9-.6,2,2,0,0,0,.4-.8,2.14,2.14,0,0,0,.1-.6h-.1c-.1,0-.1,0-.1.1a2.2,2.2,0,0,1-.5,1.2,1,1,0,0,1-.8.5.66.66,0,0,1-.7-.2c-.2-.1-.3-.4-.4-.7v-.2h0c.3-.1.6-.2.7-.4a1.08,1.08,0,0,0,.3-.7c0-.1-.1-.2-.2-.3A.37.37,0,0,0,37.35,33.24Zm-.6,1.3h0a1.08,1.08,0,0,1,.1-.6c.1-.3.2-.5.4-.5h.3c.1,0,.1.1.1.2,0,.3-.1.5-.5.7-.1,0-.2.1-.4.2Zm.6-1h0c-.2,0-.3.2-.4.5,0,.1-.1.3-.1.4a.35.35,0,0,0,.2-.1c.3-.2.5-.4.4-.6s0-.1-.1-.1C37.45,33.54,37.35,33.54,37.35,33.54Z"></path> <path class="cls-5" d="M22.85,54.94h-.2a.1.1,0,0,1-.1-.1q-.45-1.35-.9-3.3c-.3-1.5-.5-3-.8-4.6a.27.27,0,0,1,.3-.3c.2,0,.3,0,.3.2a2.2,2.2,0,0,1,.1.8c.1,1.2.3,2.4.5,3.6a1.85,1.85,0,0,0,.2.7,25.41,25.41,0,0,1,.1-3.9,5.9,5.9,0,0,1,.2-1.4,2.32,2.32,0,0,1,.4-1,1.33,1.33,0,0,1,.6-.5c.5-.1.8.3,1,1.1a3.59,3.59,0,0,1,1.8-.7c.2,0,.3,0,.3.2s0,.2-.2.3a3.1,3.1,0,0,0-1.8.9,4.73,4.73,0,0,1-.1,1.7c-.2.8-.4,1.2-.8,1.3s-.5,0-.7-.3c0-.1-.1-.2-.1-.3a2.16,2.16,0,0,1,.1-1.1,4.37,4.37,0,0,1,1-1.5v-.2c0-.2-.1-.3-.1-.4s-.2-.4-.3-.3c-.4.1-.7.9-.8,2.5-.1,1.3-.1,2.7-.1,4a10.7,10.7,0,0,0,.2,2.5C23.05,54.84,23,54.94,22.85,54.94Zm.8-5.5c.2,0,.3-.2.4-.6a6.62,6.62,0,0,0,.1-1.5,2.28,2.28,0,0,0-.7,1.9C23.45,49.44,23.55,49.44,23.65,49.44Z"></path> <path class="cls-5" d="M27.35,48.34c-.2,0-.5,0-.6-.2a4.88,4.88,0,0,1-.3-.7,4,4,0,0,1,0-1.9,1.17,1.17,0,0,1,1-1,2.49,2.49,0,0,1,.8.1.22.22,0,0,1,.2.2,6.9,6.9,0,0,0,.7,1.9,1,1,0,0,0,.7.5c.4-.1.8-.8,1.3-2.2,0-.1.1-.1.2-.2h.1a.35.35,0,0,1,.1.2v.2c-.5,1.6-1.1,2.4-1.6,2.5-.7.1-1.2-.4-1.6-1.6-.1.6-.1,1.1-.2,1.4C27.85,47.94,27.65,48.24,27.35,48.34Zm-.1-.5c.2,0,.4-1,.6-2.9h-.3a.88.88,0,0,0-.6.7,4.82,4.82,0,0,0,0,1.7.52.52,0,0,0,.2.4A.1.1,0,0,0,27.25,47.84Z"></path> <path class="cls-5" d="M32.15,47.34a.37.37,0,0,1-.3-.1c-.1-.3-.3-.6-.5-1.1a5.4,5.4,0,0,1-.4-1.2c0-.2,0-.2.2-.3s.3,0,.3.2a3.58,3.58,0,0,0,.4,1.1,3.73,3.73,0,0,1,.2-1.2c.2-.8.5-1.2.8-1.3s.3,0,.4.1l.3.3c.3.3.5.5.8.4a.76.76,0,0,0,.5-.2H35c.1,0,.2,0,.2.2s0,.2-.2.3a.85.85,0,0,1-.6.2.82.82,0,0,1-.7-.1,1,1,0,0,1-.5-.4c-.1-.2-.2-.2-.3-.2s-.2.3-.4.9a5.27,5.27,0,0,0-.1,2.2s0,.1-.2.2Z"></path> <path class="cls-5" d="M36.55,48.84q-.75.15-1.8-5.4-.3-1.8-.6-3a17.24,17.24,0,0,1-3.2,1.1c-.5.1-.8.1-.9-.2s0-.3.2-.3h.2c.1,0,.1.1.2,0q.6-.15,3.3-1.2a6.82,6.82,0,0,1-.1-1.2.22.22,0,0,1,.2-.2c.2,0,.2,0,.3.2a8.92,8.92,0,0,0,.2,1.1c1-.4,2.1-.9,3.1-1.4.1,0,.2-.1.3-.1s.2,0,.2.2a.37.37,0,0,1-.1.3c-.8.4-2,.9-3.5,1.5.1.9.3,1.9.5,3a25.33,25.33,0,0,0,1.3,4.9c.1.1.1.3.2.4C36.85,48.74,36.75,48.84,36.55,48.84Z"></path> <path class="cls-5" d="M39.15,51.74a1.16,1.16,0,0,1-1-.2,1.68,1.68,0,0,1-.6-1.1,6,6,0,0,1,.8-3.9,8.64,8.64,0,0,1,1-1.6c-.2-.6-.3-1.2-.5-1.8-.3,1.5-.7,2.4-1.2,2.5s-1-.3-1.2-1.2c-.1-.4-.1-.6,0-.7s.1-.1.2-.1h.2c.1,0,.1.1.1.2l.1.5c.1.6.3.8.5.8s.4-.3.5-.7.3-1.1.5-2.1a.22.22,0,0,1,.2-.2c.1,0,.2,0,.3.2a16.52,16.52,0,0,1,.7,2.1,10.61,10.61,0,0,1,1.5-1.5,1.24,1.24,0,0,0,.3-.2c.2,0,.2,0,.3.2s0,.1-.1.2A11.06,11.06,0,0,0,40,45c.1.5.2.9.3,1.4.6,3.1.4,4.9-.8,5.4A.37.37,0,0,0,39.15,51.74Zm0-.5a1,1,0,0,0,.7-.7,8.49,8.49,0,0,0-.1-4.2l-.2-1a8.53,8.53,0,0,0-1.4,3.1,3.67,3.67,0,0,0-.1,1.8,2,2,0,0,0,.4.8A.62.62,0,0,0,39.15,51.24Z"></path> </g> </g> </svg> 