<?xml version="1.0" encoding="UTF-8"?> <svg xmlns="http://www.w3.org/2000/svg" viewBox="0 0 292.42 442.94"> <defs> <style>.cls-1{fill:#010101;}.cls-2{fill:#fff;}</style> </defs> <title>Asset 4</title> <g id="Layer_2" data-name="Layer 2"> <g id="Layer_1-2" data-name="Layer 1"> <path class="cls-1" d="M217.25,442.94h0c-3.24,0-13.11,0-13.73-6-1.14-3.21-27.81-7.12-59.23-7.12-25.1,0-37.84,2.67-39,5.16,0,.1-.16.33.3.93a2.79,2.79,0,0,1,.55,3.08c-.69,1.4-2.54,2.7-11.38,2.7-21.47,0-64.08-5.19-64.57-5.27l-1.56-.26.46-1.51c.24-.77,18.23-36.12,19.72-74.82,1.61-41.61,11.6-76.72,32.43-131.68l.8-2.14c.91-2.41,1.75-4.6,2.52-6.61,3.81-9.9,5.91-15.35,6-22.4a13.46,13.46,0,0,0-1.58-6.37c-4.82,2-17.82,2-18.46,2-9.5,0-33.45-1.2-50.5-12.29a192.54,192.54,0,0,1-19.25-15L0,164.7l.38-.91c.26-.63,26.38-63.3,33.41-88.7,0-.1,1.94-6.3,6.48-18.42C41.9,51,50.73,27.4,61.93,22c6.83-3.33,13.81-5.17,20.56-6.95A116,116,0,0,0,95.9,10.91a72,72,0,0,0,17.16-9.47l.48-.39.61.1a225,225,0,0,0,30.59,2.38,301.8,301.8,0,0,0,33.52-2.39l.6-.08.46.38a72,72,0,0,0,17.16,9.47A116,116,0,0,0,209.89,15c6.75,1.78,13.73,3.62,20.57,7,11.23,5.47,20.08,29.19,21.67,34.77,4.51,12,6.43,18.27,6.45,18.33C263,91.12,274.81,121.4,283.91,144c4.63,11.51,8.06,19.72,8.09,19.8l.41,1-.84.65c-.62.48-15.48,12-28.91,16.7-19.4,6.86-39.77,9.3-51.32,9.3-4.35,0-6.65-.33-7.91-.72a13.48,13.48,0,0,0-1.57,6.34c.11,7.05,2.21,12.5,6,22.4.77,2,1.61,4.2,2.52,6.61l1,2.54c20.9,55,33.7,90,35.29,131.28,1.49,38.46,19.48,74,19.72,74.82l.43,1.37-1.39.37C264,436.81,236.26,442.94,217.25,442.94Zm-73-15.85A348,348,0,0,1,185,429.4c20.76,2.62,21.1,5.89,21.24,7.29.24,2.24,4.14,3.47,11,3.47h0c16.49,0,39.47-4.34,46.06-6-3.2-10.63-18-38.2-19.43-74.14-1.58-41-14.32-75.69-35.11-130.41l-1-2.54c-.91-2.41-1.75-4.59-2.52-6.59-3.92-10.2-6.08-15.81-6.2-23.35a17.62,17.62,0,0,1,2.71-9.23l2.41,1.37A1,1,0,0,0,204,188c.4.24,2.44.7,7.36.7,11.33,0,31.33-2.4,50.4-9.14,11.24-4,23.95-13.15,27.29-15.65-1-2.52-4-9.62-7.7-18.84-9.12-22.65-20.94-53-25.41-69.19,0,0-1.91-6.17-6.42-18.24-1.3-4.54-9.89-28.1-20.26-33.15-6.59-3.21-13.43-5-20.05-6.76a118.09,118.09,0,0,1-13.74-4.2A76.09,76.09,0,0,1,178.05,4,300.28,300.28,0,0,1,144.74,6.3,227,227,0,0,1,114.32,4a76.3,76.3,0,0,1-17.39,9.51,117.91,117.91,0,0,1-13.73,4.2c-6.62,1.75-13.47,3.55-20.06,6.76-10.25,5-18.75,28-20.17,32.87v.06l-.53,6.55-.92-2.64C38,70.91,36.47,75.81,36.45,75.86,29.85,99.7,6.59,156.05,3.32,163.94A183.55,183.55,0,0,0,21.49,178c16.43,10.69,39.73,11.85,49,11.85,10.13,0,16.91-1.25,17.86-1.95a1.06,1.06,0,0,0-.17,1.3l2.41-1.37h0a17.52,17.52,0,0,1,2.71,9.22c-.11,7.54-2.28,13.15-6.2,23.35-.77,2-1.61,4.18-2.51,6.59l-.81,2.14C63.05,283.85,53.12,318.67,51.52,360c-1.39,36-16.05,62.94-19.38,74,8.46,1.37,43.49,5,62.56,5,6.71,0,8.4-.78,8.8-1.08l-.15-.22a3.49,3.49,0,0,1-.61-3.85C105.44,428.25,126.82,427.09,144.28,427.09Z"></path> <path class="cls-1" d="M144.6,19.93c-22.42,0-40.48-3.69-49.14-6.86l-1.67-.61,1.64-.68a97.9,97.9,0,0,0,18-9.83l.23-.17.29.05A225.51,225.51,0,0,0,144.6,4.22a302.69,302.69,0,0,0,33.61-2.39l.3,0,.24.19a72.81,72.81,0,0,0,17.33,9.57l1.76.67,2.09.76-2.15.56A213.25,213.25,0,0,1,144.6,19.93Zm-47-7.58c9.09,3,26.12,6.2,47,6.2a214.19,214.19,0,0,0,50.72-5.81,74.44,74.44,0,0,1-17.21-9.5A300.56,300.56,0,0,1,144.6,5.61,225.19,225.19,0,0,1,114,3.24,99.89,99.89,0,0,1,97.62,12.35Z"></path> <path class="cls-2" d="M270,176.08c10.39-2.78,20.79-11.76,20.79-11.76s-26.33-63.08-33.47-88.86c0,0-1.87-6.1-6.46-18.36.06.23-.12.38-.49.47a1,1,0,0,0,0-.47c-1.12-4-9.78-28.47-20.94-33.91-11.57-5.63-23.94-7-33.89-11A72.59,72.59,0,0,1,178,2.51s-25.35,121.84-32,176.21C139.32,124.35,114,2.51,114,2.51a72.59,72.59,0,0,1-17.52,9.68c-10,4-22.31,5.37-33.88,11-11.16,5.44-19.83,30-21,33.91a1.2,1.2,0,0,0,0,.19.31.31,0,0,1,0-.19C37,69.36,35.16,75.46,35.16,75.46,28,101.24,1.69,164.32,1.69,164.32s10.4,9,20.79,11.76-9.7-11.72,0-11.75,30.68,11,48.07,21c5.38,3.09,20.34,5.85,18.86,3.23a16,16,0,0,1,2.53,8.51c-.14,8.77-3.23,15.12-8.63,29.48s-31,68.1-33.51,133.39C48.2,401.17,30,435.1,30,435.1s64.74,10.11,60.39,3.1c-4.85-7.81,15.61-1.39,31.81-1.39,9.48,0,17.51.27,17.55-.88.72-19.37,3.39-57.35,4.17-67.38,1.16-14.95,1-19.88,2-52.48,1,32.6,3.64,37.53,4.81,52.48.78,10,3.45,48,4.17,67.38,0,1.15,8.07.88,17.54.88,16.2,0,68.62-11.34,66.82-1.39-1.1,6.06,25.39-.32,25.39-.32s-18.19-33.93-19.78-75.17c-2.53-65.29-30.89-119-36.29-133.39s-8.49-20.71-8.62-29.48c-.06-3.73,1.35-6.59,3.16-9.6a1.64,1.64,0,0,1-.14,1.09c-1.5,2.63,29.35.49,45.22-9,17.21-10.3,16.75-15.25,26.46-15.22S259.57,178.85,270,176.08Z"></path> <path class="cls-1" d="M84.37,441.67c-16.41,0-52.82-4.88-54.6-5.21l-1.54-.28.47-1.5c.23-.75,18.14-34.22,19.71-74.81C50,318.7,60,283.79,81,228.77l1-2.72c.9-2.41,1.74-4.6,2.52-6.61,3.81-9.9,5.91-15.35,6-22.4a13.25,13.25,0,0,0-1.5-6.21,7.52,7.52,0,0,1-1.7.15c-4.29,0-13.38-2.1-17.49-4.46-24-13.81-39.91-20.81-47.34-20.81a2.76,2.76,0,0,0-1.43.23c-.12.74,2,3.53,3.05,4.87,2,2.61,3.34,4.34,2.6,5.86a2.21,2.21,0,0,1-2.19,1.14,10.15,10.15,0,0,1-2.43-.39c-10.58-2.83-20.9-11.67-21.33-12L0,164.71l.38-.92c.27-.63,26.38-63.3,33.42-88.7,0-.1,1.94-6.3,6.47-18.42C41.93,51,50.76,27.4,62,22c6.83-3.33,13.81-5.17,20.56-6.95a116.2,116.2,0,0,0,13.42-4.09,72,72,0,0,0,17.15-9.47L114.86,0l.47,2.23c.23,1.15,22.51,108.41,30.65,166,8.14-57.55,30.41-164.81,30.65-166L177.09,0l1.77,1.44A72,72,0,0,0,196,10.91,116,116,0,0,0,209.43,15c6.75,1.78,13.73,3.62,20.56,7,11.24,5.47,20.09,29.19,21.68,34.77v0l.45-.15c4.55,12.16,6.46,18.38,6.48,18.44,7.05,25.44,33.16,88.11,33.43,88.74l.38.92-.76.66c-.43.38-10.75,9.22-21.33,12a9.5,9.5,0,0,1-2.32.39h0a1.85,1.85,0,0,1-1.91-1.13c-.57-1.5.94-2.83,4.25-5.75,1.62-1.42,4.48-3.94,5.14-5.17a4.78,4.78,0,0,0-.78,0c-5.32,0-7.14,1.47-11.56,5a112.15,112.15,0,0,1-14.18,10c-11.67,7-31.63,10.24-41.45,10.24a14.42,14.42,0,0,1-4.46-.46A13.46,13.46,0,0,0,201.4,197c.11,7.05,2.21,12.5,6,22.4.77,2,1.61,4.2,2.52,6.61l1,2.72c20.94,55,33.75,89.93,35.34,131.1,1.57,40.59,19.48,74.06,19.72,74.81l.43,1.36-1.37.39c-.75.21-12.83,2.45-21.45,2.45-2.65,0-4.28-.48-5.13-1.49a2.62,2.62,0,0,1-.56-2.22.82.82,0,0,0-.16-.75c-.53-.64-2.46-1.7-9.38-1.7-8.53,0-21.12,1.63-32.22,3.08-9.49,1.23-18.45,2.4-23.69,2.4h-8.4c-8.35,0-10.45-.26-10.53-2.23-.78-21.09-3.39-57.38-4.16-67.34-.65-8.27-1.36-10.63-2-27.33-.69,16.7-1.4,19.06-2,27.33-.78,10-3.38,46.25-4.16,67.33-.08,2-2.19,2.24-10.53,2.24h-8.41a145.27,145.27,0,0,1-17.38-1.47,96.12,96.12,0,0,0-10.67-1c-2.63,0-3.09.49-3.11.51h0a2.73,2.73,0,0,0,.52,1.25,2.19,2.19,0,0,1,.14,2.32C91,441.13,88.85,441.67,84.37,441.67ZM31.81,434c7.86,1.4,38.15,4.89,52.56,4.89a17.53,17.53,0,0,0,4.61-.4,3.65,3.65,0,0,1-.34-3.63c1-1.71,3.45-1.93,5.53-1.93a98.07,98.07,0,0,1,11,1,140.85,140.85,0,0,0,17,1.45h8.41a67.46,67.46,0,0,0,7.78-.3c.82-21.93,3.38-56.83,4.15-66.71,1.09-14,1-18,2-52.41h2.77c1,34.44,3.72,38.41,4.81,52.41.77,9.89,3.33,44.78,4.14,66.71a67.63,67.63,0,0,0,7.79.3h8.4c5.06,0,13.94-1.16,23.34-2.38C207,431.6,219.7,430,228.41,430c6.31,0,10,.85,11.5,2.69a3.58,3.58,0,0,1,.77,3s.63.44,3,.44c6.9,0,15-.77,19.32-2C259.75,423.7,245,397.88,243.54,360c-1.58-40.87-14.33-75.49-35.16-130.22l-1-2.73c-.9-2.41-1.74-4.59-2.51-6.6-3.92-10.19-6.09-15.8-6.2-23.34-.06-4.28,1.63-7.46,3.37-10.34l2-3.27.59,3.77a3.46,3.46,0,0,1,0,.78,18.31,18.31,0,0,0,2.93.17c9.51,0,28.81-3.13,40-9.85a110.12,110.12,0,0,0,13.86-9.76c4.52-3.65,7-5.65,13.21-5.65.82,0,3,0,3.63,1.69.82,2.16-1.77,4.59-6.06,8.38-.52.45-1.1,1-1.64,1.46,8.07-2.45,16.07-8.57,18.53-10.56-3.32-8-26.53-64.24-33.13-88.08,0,0-1.75-5.67-5.87-16.76l-1.47.37.36-2.08c-1.37-4.7-9.9-27.91-20.19-32.92-6.59-3.21-13.43-5-20.06-6.76A117.91,117.91,0,0,1,195,13.48,79.38,79.38,0,0,1,178.9,4.92c-3.4,16.5-25.46,124.22-31.55,174L146,190.13l-1.38-11.24c-6.09-49.75-28.14-157.47-31.55-174A79.51,79.51,0,0,1,97,13.48a118.68,118.68,0,0,1-13.74,4.2c-6.62,1.75-13.47,3.55-20.06,6.76-10.24,5-18.75,28-20.17,32.87v.06l-.52,9.41-1.17-4.85C38,71.13,36.5,75.81,36.49,75.86c-6.59,23.81-29.8,80-33.12,88.05,2.55,2.06,11.09,8.59,19.47,10.83l.9.21c-.48-.74-1.23-1.72-1.79-2.45-2.25-2.92-4.36-5.68-3.31-7.83.84-1.72,3.1-1.72,3.84-1.73,8.07,0,24,6.93,48.76,21.17,3.67,2.12,12.19,4.1,16.11,4.1a3.5,3.5,0,0,0,1.21-.12.92.92,0,0,0-.35,1.14l2.41-1.36a17.55,17.55,0,0,1,2.7,9.22c-.11,7.54-2.27,13.15-6.2,23.35-.77,2-1.61,4.18-2.51,6.59l-1,2.73C62.74,284.49,52.76,319.11,51.18,360,49.72,397.72,35.14,423.15,31.81,434ZM250,56.23a1.09,1.09,0,0,0-.5,1.25l.75-.25Z"></path> <path class="cls-2" d="M22.48,164.33c9.7,0,30.68,11,48.07,21,5.38,3.09,20.36,5.86,18.86,3.23-2.49-4.39-6.15-8.84-7.63-16.64-2.37-12.49-1-36.73-4.85-57S40.5,61.05,41.62,57.1C37,69.36,35.16,75.46,35.16,75.46,28,101.24,1.69,164.32,1.69,164.32s10.4,9,20.79,11.76S12.78,164.36,22.48,164.33Z"></path> <path class="cls-1" d="M87.35,190.29c-4.2,0-13.12-2.06-17.14-4.37-24.44-14.06-40-20.9-47.69-20.9-1.12,0-1.84.21-2,.57-.49,1,1.66,3.79,3.09,5.64,2,2.56,3,4.06,2.52,5.13a1.58,1.58,0,0,1-1.57.76h0a9.23,9.23,0,0,1-2.25-.37C11.87,174,1.67,165.22,1.24,164.85l-.38-.33.19-.46c.27-.64,26.4-63.34,33.44-88.79,0-.08,1.94-6.27,6.48-18.41l1.32.43C42,58.51,47,65,51.73,71.18c9.91,12.93,23.47,30.64,25.88,43.56,2.13,11.38,2.66,24,3.12,35.05.37,8.86.69,16.52,1.73,22,1.15,6.06,3.66,10.08,5.87,13.64.59,1,1.16,1.87,1.68,2.79a1.19,1.19,0,0,1,0,1.23C89.72,190,88.88,190.29,87.35,190.29ZM22.48,163.64c7.94,0,23.77,6.89,48.42,21.08,3.75,2.15,12.45,4.19,16.45,4.19a4.38,4.38,0,0,0,1.38-.15c-.5-.88-1-1.73-1.58-2.61-2.27-3.66-4.85-7.8-6.05-14.11-1.06-5.57-1.38-13.28-1.75-22.2-.47-11-1-23.56-3.1-34.85C73.9,102.4,60.45,84.84,50.63,72c-4.88-6.37-7.87-10.32-9.09-12.72-4,10.8-5.7,16.3-5.72,16.36C29.09,100,5,158.27,2.53,164.12c2,1.61,11.11,8.88,20.13,11.29a8.48,8.48,0,0,0,1.89.33h0a.77.77,0,0,0,.38-.06c0-.43-1.46-2.34-2.43-3.61-2-2.62-4.1-5.33-3.24-7.09C19.7,164.08,20.75,163.64,22.48,163.64Z"></path> <path class="cls-2" d="M114,2.51a72.59,72.59,0,0,1-17.52,9.68c-10,4-22.31,5.37-33.88,11-11.16,5.44-19.83,30-21,33.91s31.52,37.44,35.31,57.76,2.48,44.56,4.85,57.05,10.29,16.39,10.16,25.15-3.23,15.12-8.63,29.48-31,68.1-33.51,133.39C48.2,401.17,30,435.1,30,435.1s64.74,10.11,60.39,3.1c-4.85-7.81,15.61-1.39,31.81-1.39,9.48,0,17.51.27,17.55-.88.72-19.37,3.39-57.35,4.17-67.38,2.81-36.1,4.83-134.38,3.59-172.55S114,2.51,114,2.51Z"></path> <path class="cls-1" d="M84.37,441c-16.34,0-54-5.12-54.48-5.2l-.77-.14.24-.75c.23-.76,18.17-34.31,19.75-75C50.69,318.8,60.72,284,81.63,229l1-2.72c.91-2.42,1.75-4.6,2.53-6.61,3.83-10,6-15.46,6-22.64.07-4.21-1.86-7.31-4.09-10.9S82.3,178.35,81.1,172c-1.06-5.57-1.38-13.28-1.75-22.2-.47-11-1-23.56-3.1-34.85C73.9,102.4,60.45,84.84,50.63,72,43.56,62.79,40.46,58.64,41,56.91c1.57-5.52,10.31-29,21.31-34.34C69,19.28,76,17.44,82.7,15.67a118.8,118.8,0,0,0,13.5-4.12A73.08,73.08,0,0,0,113.53,2l.89-.72.23,1.11C115,3.93,147,158.18,148.22,196c1.23,38-.82,137.07-3.59,172.62-.78,10-3.39,46.27-4.17,67.36-.05,1.28-1.88,1.57-9.83,1.57H126.8l-4.58,0A144,144,0,0,1,104.93,436a97.21,97.21,0,0,0-10.76-1c-2.81,0-3.53.54-3.71.86s0,1.06.54,1.95a1.54,1.54,0,0,1,.12,1.62C90.7,440.21,89.57,441,84.37,441Zm-53.46-6.43c5.9,1.07,38.44,5.05,53.46,5.05,5.13,0,5.53-.81,5.54-.83h0a.51.51,0,0,0-.09-.21c-.87-1.39-1-2.49-.57-3.35.6-1.09,2.12-1.57,4.92-1.57a98.63,98.63,0,0,1,10.93,1,140.15,140.15,0,0,0,17.12,1.46h4.59l3.82,0c2.06,0,7.38,0,8.46-.46.79-21.36,3.38-57.25,4.16-67.2C146,333,148.07,233.94,146.84,196c-1.17-36-30.45-178.38-33.32-192.28a77.71,77.71,0,0,1-16.81,9.1A119.43,119.43,0,0,1,83.05,17c-6.65,1.76-13.53,3.57-20.18,6.81-10.6,5.16-19.31,29-20.58,33.47C42,58.51,47,65,51.73,71.18c9.91,12.93,23.47,30.64,25.88,43.56,2.13,11.38,2.66,24,3.12,35.05.37,8.86.69,16.52,1.73,22,1.15,6.06,3.66,10.08,5.87,13.64,2.34,3.77,4.37,7,4.3,11.65-.11,7.42-2.26,13-6.15,23.12-.77,2-1.61,4.19-2.52,6.59l-1,2.73C62.07,284.31,52.07,319,50.49,360,49,398.62,33.38,426.56,30.91,434.55Z"></path> <path class="cls-2" d="M274.72,164.32c-9.71,0-9.25,4.92-26.46,15.22-15.87,9.5-46.72,11.64-45.22,9,2.49-4.39,6.15-8.84,7.63-16.64,2.37-12.49,1.05-36.73,4.85-57S252,61.05,250.83,57.1c4.59,12.26,6.46,18.36,6.46,18.36,7.14,25.78,33.47,88.86,33.47,88.86s-10.4,9-20.79,11.76S284.42,164.35,274.72,164.32Z"></path> <path class="cls-1" d="M207.52,190.28c-4.48,0-4.89-.72-5.09-1.06a1,1,0,0,1,0-1c.52-.92,1.09-1.84,1.68-2.79,2.21-3.56,4.72-7.58,5.87-13.64,1-5.47,1.36-13.13,1.73-22,.46-11.09,1-23.67,3.12-35,2.41-12.92,16-30.63,25.88-43.56,4.77-6.23,9.7-12.67,9.44-13.89l1.32-.43C256,69,257.93,75.19,258,75.25c7.05,25.47,33.18,88.17,33.45,88.81l.19.46-.38.33c-.43.37-10.63,9.12-21.06,11.9-2.55.68-3.22.19-3.41-.31-.38-1,.9-2.19,4.07-5,1.9-1.68,5.85-5.16,5.5-6.09,0-.09-.39-.34-1.6-.35-5.56,0-7.58,1.63-12,5.19a112.25,112.25,0,0,1-14.11,9.94C237.06,187.06,217.26,190.28,207.52,190.28Zm-3.69-1.71a13.38,13.38,0,0,0,3.69.32c9.59,0,29-3.16,40.38-9.94a111.48,111.48,0,0,0,14-9.82c4.53-3.66,6.81-5.5,12.77-5.5.7,0,2.52,0,3,1.24.64,1.7-1.92,4.12-5.88,7.62a36,36,0,0,0-3.41,3.23,13.22,13.22,0,0,0,1.47-.31c9-2.41,18.17-9.68,20.13-11.29-2.43-5.85-26.56-64.12-33.3-88.48,0,0-1.71-5.54-5.71-16.34-1.23,2.4-4.21,6.35-9.09,12.72C232,84.84,218.55,102.4,216.2,115c-2.11,11.29-2.64,23.81-3.1,34.85-.37,8.92-.69,16.63-1.75,22.2-1.2,6.31-3.78,10.45-6,14.11C204.79,187,204.29,187.77,203.83,188.57Z"></path> <path class="cls-2" d="M178,2.51a72.59,72.59,0,0,0,17.52,9.68c9.95,4,22.32,5.37,33.89,11,11.16,5.44,19.82,30,20.94,33.91S218.82,94.54,215,114.86s-2.48,44.56-4.85,57.05S199.88,188.3,200,197.06s3.22,15.12,8.62,29.48,33.76,68.1,36.29,133.39c1.59,41.24,19.78,75.17,19.78,75.17s-26.49,6.38-25.39.32c1.8-9.95-50.62,1.39-66.82,1.39-9.47,0-17.5.27-17.54-.88-.72-19.37-3.39-57.35-4.17-67.38-2.81-36.1-7.6-134.38-6.36-172.55S178,2.51,178,2.51Z"></path> <path class="cls-1" d="M243.64,438.18c-2.43,0-3.89-.39-4.6-1.24a1.94,1.94,0,0,1-.41-1.64,1.49,1.49,0,0,0-.31-1.32c-.75-.89-3.07-2-9.91-2-8.58,0-21.18,1.63-32.3,3.08-9.47,1.23-18.41,2.39-23.61,2.39l-4.58,0H164.1c-7.95,0-9.79-.29-9.84-1.57-.78-21.09-3.39-57.4-4.16-67.36-2.77-35.55-7.6-134.67-6.37-172.62C145,158.18,177,3.93,177.31,2.37l.23-1.11.88.72a73.29,73.29,0,0,0,17.34,9.57,118.62,118.62,0,0,0,13.49,4.12c6.72,1.77,13.67,3.61,20.44,6.9,11,5.36,19.74,28.82,21.31,34.34.49,1.73-2.61,5.88-9.68,15.11-9.82,12.82-23.27,30.38-25.62,43-2.11,11.29-2.63,23.81-3.09,34.85-.38,8.92-.7,16.63-1.76,22.2-1.2,6.31-3.77,10.45-6,14.11s-4.15,6.69-4.09,10.9c.11,7.18,2.22,12.67,6.06,22.64.77,2,1.61,4.19,2.52,6.61l1,2.72c23.57,53.66,33.71,89.78,35.3,130.88,1.57,40.68,19.51,74.23,19.75,75l.21.68-.68.19A130.21,130.21,0,0,1,243.64,438.18Zm-15.23-7.54c6.09,0,9.58.78,11,2.45a2.86,2.86,0,0,1,.62,2.45.58.58,0,0,0,.1.52c.19.22.91.74,3.54.74a99.35,99.35,0,0,0,20.19-2.18c-2.37-7.67-18.09-35.89-19.59-74.66-1.59-41-14.35-75.65-35.21-130.45l-1-2.73c-.9-2.4-1.74-4.59-2.51-6.59-3.9-10.12-6-15.7-6.16-23.12-.07-4.62,2-7.88,4.31-11.65,2.21-3.56,4.71-7.58,5.86-13.64,1-5.47,1.36-13.13,1.73-22,.47-11.09,1-23.67,3.12-35,2.41-12.92,16-30.63,25.88-43.56,4.77-6.23,9.71-12.67,9.45-13.89-1.28-4.48-10-28.31-20.59-33.47-6.65-3.24-13.53-5.05-20.18-6.81a120.05,120.05,0,0,1-13.66-4.17,77.28,77.28,0,0,1-16.8-9.1C175.56,17.64,146.29,160,145.12,196c-1.23,37.92,3.59,137,6.36,172.47.77,9.95,3.37,45.84,4.16,67.2,1.08.46,6.4.46,8.46.46l3.82,0h4.58c5.11,0,14-1.16,23.43-2.38C207.09,432.29,219.74,430.64,228.41,430.64Z"></path> <path class="cls-2" d="M168.3,368.55c.88,11.33,2.46,18.34,4.2,68.26H155c-1.74-49.92-3.32-56.93-4.2-68.26-2.81-36.1-7.6-134.38-6.36-172.55S178,2.51,178,2.51a71.16,71.16,0,0,0,15.68,8.92C186.8,45,163,163.34,161.94,196,160.7,234.17,165.49,332.45,168.3,368.55Z"></path> <path class="cls-1" d="M173.22,437.5H154.33l0-.66c-2-57.29-3.42-58.17-4.2-68.24-2.77-35.55-7.6-134.67-6.37-172.62C145,158.18,177,3.93,177.31,2.37l.23-1.11.88.72a71.55,71.55,0,0,0,15.51,8.81l.52.22-.11.56c-7.18,35.07-30.66,152-31.71,184.45-1.23,37.92,3.59,137,6.36,172.47.78,10.09,2.2,11,4.21,68.3Zm-17.56-1.38h16.13c-2-56.85-3.4-57.49-4.18-67.52-2.77-35.55-7.6-134.67-6.37-172.62,1.06-32.39,24.32-148.38,31.63-184.14a75.71,75.71,0,0,1-14.43-8.1C175.57,17.62,146.29,160,145.12,196c-1.23,37.92,3.59,137,6.36,172.47C152.26,378.54,153.67,379.22,155.66,436.12Z"></path> <path class="cls-2" d="M175.6,204.89c4,46.37,12.48,83.62,6.48,117.86-5.25,30,2.6,66.69,2.6,66.69s-20.24-3-25.35-8.58.29-38.21,7.08-60.3c9.63-31.36,7.17-111,4.84-114.72S175.6,204.89,175.6,204.89Z"></path> <path class="cls-1" d="M185.52,390.26l-.94-.14c-.84-.12-20.55-3.11-25.76-8.79-5.53-6,.52-40.12,6.93-61,9.54-31.06,7-110.63,4.91-114.15-.38-.62-.85-1.53-.43-2.28a1.62,1.62,0,0,1,1.56-.72,14.16,14.16,0,0,1,4.08,1.05l.38.16,0,.42c.75,8.78,1.63,17.89,2.49,26.7,3.67,38,8.86,63.49,4,91.34-5.17,29.5,2.52,66,2.6,66.46Zm-14.1-185.63a6.35,6.35,0,0,0,.42.84c2.83,4.54,4.43,85.33-4.77,115.29-6.87,22.38-12,54.41-7.23,59.63,4.27,4.66,20,7.54,24,8.21-1.06-6.89-7.26-38.56-2.45-66,4.84-27.66-.33-53-4-91-.84-8.68-1.71-17.64-2.45-26.29a11.28,11.28,0,0,0-3.16-.79A1.46,1.46,0,0,0,171.42,204.63Z"></path> <path class="cls-2" d="M200.87,193.1c-7.59,4-18.72,3.44-19.3,6.11s-.4,9.87,4.62,10.09,14.2,2.11,17.15,1.85S203.09,191.94,200.87,193.1Z"></path> <path class="cls-1" d="M202.71,211.87a70,70,0,0,1-8-.89c-3.08-.44-6.26-.89-8.55-1a4.81,4.81,0,0,1-3.77-2c-2-2.53-2-6.85-1.5-9,.39-1.79,3.23-2.3,7.53-3.09,3.75-.68,8.41-1.53,12.13-3.49a1.08,1.08,0,0,1,.52-.13c2.65,0,4,10.78,4.12,13.68.17,3.84-.4,5.68-1.79,5.8C203.2,211.86,203,211.87,202.71,211.87Zm-1.65-18.09c-3.88,2-8.6,2.87-12.39,3.57-2.92.53-6.23,1.13-6.42,2-.43,2-.33,5.81,1.23,7.84a3.49,3.49,0,0,0,2.74,1.4c2.36.1,5.57.57,8.69,1a51.27,51.27,0,0,0,8.37.85h0s.51-.33.55-2.9C203.92,202.25,202.09,194.7,201.06,193.78Z"></path> <path class="cls-2" d="M180.9,207.67c4.85,44.28,20.59,87.25,23.24,106.3s-7.41,42.89-7.41,42.89,21,5.67,26.87-.64,2.22-29.41-1.37-43.63-33.81-99.73-36.17-102.73S180.9,207.67,180.9,207.67Z"></path> <path class="cls-1" d="M213.16,359.89h0a75.67,75.67,0,0,1-16.6-2.36l-.77-.21.31-.73c.1-.24,10-23.88,7.37-42.52-.94-6.75-4.69-18-7.69-32.31-5.24-25-12.42-45.43-15.56-74l-.06-.57.56-.17a4.5,4.5,0,0,1,1.08-.12,6.07,6.07,0,0,1,4.81,2.56c2.58,3.27,32.91,89.51,36.3,103,.93,3.66,8.81,36.05,1.21,44.27C222.13,358.81,218.45,359.89,213.16,359.89Zm-15.49-3.51a71.74,71.74,0,0,0,15.48,2.13h0c4.89,0,8.23-.93,9.93-2.77,5.78-6.23,1.75-29.95-1.53-43-3.51-13.92-33.75-99.39-36.05-102.47a4.65,4.65,0,0,0-3.84-2c3.16,28.38,10.26,48.41,15.46,73.21,3,14.3,6.75,25.6,7.7,32.4C207.21,331,199.33,352.17,197.67,356.38Z"></path> <path class="cls-2" d="M158.16,283.78c11.32-8,20-78.89,18.08-85.38-1.52-5.06-15,40.5-17,52.48S158.16,283.78,158.16,283.78Z"></path> <path class="cls-1" d="M157.53,285.08l-.06-1.27c0-.21-.9-21.12,1.07-33,1.23-7.45,13.59-53.45,17.37-53.45a1.05,1.05,0,0,1,1,.88c1.85,6.19-6.66,77.84-18.35,86.15Zm18.16-86c-3.2,4.65-13.9,40.46-15.79,51.89-1.64,9.95-1.26,26.32-1.1,31.28C169,271.25,176.91,207.44,175.69,199.11Z"></path> <path class="cls-2" d="M126.43,368.55c-.89,11.33-2.46,18.34-4.21,68.26h17.51c1.75-49.92,3.32-56.93,4.21-68.26,2.81-36.1,4.83-134.38,3.59-172.55S114,2.51,114,2.51A70.91,70.91,0,0,1,98.3,11.43C105.15,45,129,163.34,130,196,131.26,234.17,129.24,332.45,126.43,368.55Z"></path> <path class="cls-1" d="M140.4,437.5H121.5l0-.71c2-57.3,3.42-58.21,4.21-68.3,2.77-35.52,4.82-134.55,3.59-172.47-1.06-32.45-24.54-149.38-31.71-184.45L97.5,11l.52-.22A70.92,70.92,0,0,0,113.53,2l.89-.72.23,1.11C115,3.93,147,158.18,148.22,196c1.23,38-.82,137.07-3.59,172.62-.79,10.07-2.2,10.95-4.21,68.24Zm-17.46-1.38h16.12c2-56.9,3.4-57.58,4.19-67.63C146,333,148.07,233.94,146.84,196c-1.17-36-30.45-178.4-33.32-192.28a76.41,76.41,0,0,1-14.43,8.1C106.4,47.6,129.66,163.59,130.71,196c1.23,38-.82,137.07-3.59,172.62C126.34,378.63,124.93,379.27,122.94,436.12Z"></path> <path class="cls-2" d="M205.91,268.58c-7.7-1.69-10.54-8-12.13-22.47s-13.39-38-12.24-43,18.2,23.5,21.92,30.47S205.91,268.58,205.91,268.58Z"></path> <path class="cls-1" d="M206.57,269.43l-.8-.18c-8.74-1.9-11.2-9.58-12.68-23.07-.83-7.53-4.42-17.44-7.58-26.19-2.93-8.07-5.24-14.45-4.65-17a1.27,1.27,0,0,1,1.24-1.12c4.34,0,21.8,31.1,22,31.42,3.76,7.06,2.59,34.18,2.54,35.33Zm-24.34-66.16c-.44,2.38,2,9.12,4.58,16.25,3.19,8.82,6.81,18.81,7.65,26.51,1.57,14.23,4.33,19.89,10.8,21.67.17-4.71.82-27.71-2.41-33.77C198.35,225.5,185.07,204.12,182.23,203.27Z"></path> <path class="cls-2" d="M86.92,214.71c3-11.55,4.31-23.74,3.45-23.39s79.18,2.06,90.53,7.89c6.49,3.34,5.46,10.49-5.28,10.65s-46.59,2.08-59.42,3.81S86.92,214.71,86.92,214.71Z"></path> <path class="cls-1" d="M94.91,215.54c-4.7,0-8-.14-8-.14l-.86,0,.21-.82c2.66-10.37,3.86-20.46,3.68-22.56h-.07l-.16-.5-.94-1.13,1.58.28h.39l.07.07c1,.07,4.14.2,8.37.36,21.82.86,72.94,2.87,82.05,7.55,3.2,1.64,4.89,4.35,4.3,6.88-.72,3.09-4.42,5-9.89,5.08-11,.17-46.9,2.12-59.34,3.8A171.88,171.88,0,0,1,94.91,215.54Zm-7.1-1.49c1.26,0,3.84.1,7.1.1a168.7,168.7,0,0,0,21.2-1.17c12.73-1.72,48.16-3.63,59.5-3.81,5.64-.09,8.12-2.13,8.56-4s-1-4-3.58-5.33c-8.84-4.54-61.61-6.61-81.48-7.39L92,192.15l.09.11-.85-.11C91.45,195.81,89.74,206.25,87.81,214.05Z"></path> <path class="cls-2" d="M174.24,198.41c-10.52,13.69-46.88,63.88-39.88,76.24,4.62,8.15,4.38,1.57,12.3,2.42s12.37,10.19,12,5.31C156.36,254,177.85,193.71,174.24,198.41Z"></path> <path class="cls-1" d="M158.28,284.47h0c-.65,0-1.3-.58-2.49-1.65-2-1.84-5.13-4.63-9.2-5.06a10.45,10.45,0,0,0-6,1.05,5.7,5.7,0,0,1-2.23.66c-1.49,0-2.73-1.21-4.58-4.48-8.07-14.24,38-74.45,39.93-77a1.16,1.16,0,0,1,.85-.53h.35l.26.31c.49.63.18,2-3,13.4-5,18.21-14.39,52.11-12.86,71.16.08,1,0,1.5-.33,1.84A1,1,0,0,1,158.28,284.47Zm-13-8.17a13,13,0,0,1,1.48.08c4.51.48,7.93,3.57,10,5.41.42.38.91.82,1.25,1.08,0-.12,0-.26,0-.44-1.55-19.29,7.85-53.35,12.9-71.64,1.18-4.28,2.26-8.17,2.78-10.43-16.71,22-44.61,63.45-38.67,73.95,1.89,3.33,2.77,3.77,3.38,3.77a4.45,4.45,0,0,0,1.66-.54A12.07,12.07,0,0,1,145.26,276.3Z"></path> <path class="cls-2" d="M182.68,198.15c12.4,12.81,45.23,45.29,36.8,52.15-7.85,6.37-13.5,23-13.91,17.12C204.23,248.49,188,209.09,183.18,205S182.68,198.15,182.68,198.15Z"></path> <path class="cls-1" d="M206.07,269.33c-1.06,0-1.16-1.4-1.19-1.87-1.33-18.76-17.34-57.85-22.15-62-1.78-1.53-2.63-3.08-2.51-4.63a4.69,4.69,0,0,1,2.1-3.3l.47-.3.39.4c.89.93,1.89,2,3,3.05,12.56,12.9,35.95,36.89,35.38,46.79a4.47,4.47,0,0,1-1.61,3.33c-3.91,3.18-7.28,9-9.74,13.23C207.9,268,207.07,269.33,206.07,269.33Zm-23.45-70.25a3,3,0,0,0-1,1.9c-.07,1.07.61,2.24,2,3.46,4.92,4.21,21.29,43.93,22.63,62.93,0,.11,0,.21,0,.29a40.56,40.56,0,0,0,2.69-4.3c2.51-4.33,6-10.26,10.06-13.6a3.08,3.08,0,0,0,1.1-2.34c.54-9.29-23.45-33.91-35-45.74Z"></path> <path class="cls-2" d="M172.3,196c-2.58-1-4.16,4,.52,11.58s1.89,10.19,10.52,8.87c6.37-1,5.46-19.71,0-21.31C173.8,192.33,186.16,201.54,172.3,196Z"></path> <path class="cls-1" d="M179.91,217.46h0c-3.37,0-4-1.57-5.06-4.18a33,33,0,0,0-2.62-5.35c-3.47-5.65-3.54-9.73-2.54-11.52a2.22,2.22,0,0,1,2.87-1.06c2.92,1.17,4.9,1.77,5.86,1.77a.67.67,0,0,0,.36-.06,3.7,3.7,0,0,0-.08-.69,2.26,2.26,0,0,1,.26-1.9c.66-.77,2-.77,4.58,0,3.56,1,5.28,7.83,4.88,13.78-.34,5.13-2.2,8.45-5,8.88A24,24,0,0,1,179.91,217.46Zm-8.26-20.91a.87.87,0,0,0-.75.54c-.85,1.52-.43,5.33,2.51,10.12a33.6,33.6,0,0,1,2.72,5.55c1,2.55,1.35,3.32,3.78,3.32h0a22.79,22.79,0,0,0,3.33-.32c2.45-.38,3.57-4.18,3.8-7.6.39-5.86-1.43-11.64-3.89-12.36a10.62,10.62,0,0,0-2.63-.52c-.4,0-.5.09-.5.09a2.15,2.15,0,0,0,0,.77,2.17,2.17,0,0,1-.24,1.83,1.74,1.74,0,0,1-1.41.53h0c-1.17,0-3.2-.59-6.38-1.86A1,1,0,0,0,171.65,196.55Z"></path> <path class="cls-1" d="M20,165.53l-.63-.28C26.88,148.4,33,131.8,36.51,118.49c1.37-5.17,3.65-11.24,5.49-16.12s3.39-9,3.25-10.14l.69-.09c.16,1.28-1.29,5.13-3.3,10.47-1.82,4.87-4.09,10.92-5.46,16.06C33.64,132,27.53,148.65,20,165.53Z"></path> <path class="cls-1" d="M276.68,165.5c-4.21-12.44-6.49-16.1-10.28-22.17-1.16-1.85-2.46-4-4-6.58-4.63-7.94-7.63-19.36-9.81-27.7-.9-3.45-1.69-6.43-2.42-8.61l.66-.22c.74,2.2,1.52,5.19,2.43,8.65,2.17,8.3,5.15,19.67,9.74,27.53,1.53,2.62,2.83,4.71,4,6.56,3.82,6.11,6.12,9.81,10.35,22.32Z"></path> <path class="cls-1" d="M90.06,438.23c0-.37-3.13-3.85,0-59.18,1.38-24.46,5.14-41.83,9.12-72,4.8-36.3,8.37-60,9.45-93.15l.69,0c-1.08,33.2-4.65,56.89-9.45,93.21-4,30.11-7.74,47.47-9.12,71.9-3.12,55.29,0,58.72,0,59.09Z"></path> <path class="cls-1" d="M240.08,435.06l-.69,0c.62-18-4.65-21-7.8-42.65-.86-5.86-1.53-10.49-1.88-13.38l.69-.08c.35,2.87,1,7.5,1.87,13.36C235.43,414,240.71,417,240.08,435.06Z"></path> <path class="cls-1" d="M66.78,438.65c-.37-10.68,2-32.5,4.58-55.6,3-27.16,3.69-27.11.69.07-2.54,23.08-4.94,44.88-4.58,55.51Z"></path> </g> </g> </svg> 