<?xml version="1.0" encoding="UTF-8"?> <svg xmlns="http://www.w3.org/2000/svg" viewBox="0 0 317.85 230.05"> <defs> <style>.cls-1{fill:none;stroke:#221f1f;stroke-miterlimit:10;stroke-width:2.07px;fill-rule:evenodd;}</style> </defs> <title>Asset 5</title> <g id="Layer_2" data-name="Layer 2"> <g id="Layer_1-2" data-name="Layer 1"> <path class="cls-1" d="M1.07,65.47c-.28-3.85,1.08-8.54,3.8-17.75,1-3.26.84-2.61,3.45-11.08,2.44-7.89,3.66-11.83,3.86-12.71,1.47-6.47,1.21-9,3.6-13.28,1.31-2.33,2.1-3.74,3.74-4.91,3.09-2.22,5.6-1,19.06.74C45.37,7.39,48.37,7.57,52,10a17.39,17.39,0,0,1,4.33,4.05c5.52,7.49,2.43,17.65,1.84,19.59a28.39,28.39,0,0,1-9.26,13.56c1,1.26,7,9.6,4.66,20.27C50.9,79.33,40.06,84,38.26,84.82,26.63,89.87,11.52,86.49,5,77.09A23.88,23.88,0,0,1,1.07,65.47Z"></path> <path class="cls-1" d="M23.26,34.9c-1.67-3.25-.23-7.25,1.86-9.49a10.3,10.3,0,0,1,5.37-2.8c1.89-.49,6.74-1.76,10.07,1.19.31.28,2.92,2.54,2.67,5.62-.14,1.81-1.2,3-2.45,4.45A16.67,16.67,0,0,1,35.1,38C30.34,40.26,25.11,38.5,23.26,34.9Z"></path> <path class="cls-1" d="M16,62.71c-.64-3.6,1.92-7,4.58-8.52a10.3,10.3,0,0,1,6-1.09c1.94.09,7,.31,9.26,4.1.22.36,2,3.3.9,6.17-.67,1.68-2,2.53-3.66,3.52A16.57,16.57,0,0,1,26.4,69.2C21.2,69.92,16.72,66.7,16,62.71Z"></path> <path class="cls-1" d="M82.63,47.53c-.64-3.6,1.92-7,4.57-8.52a10.34,10.34,0,0,1,6-1.09c1.94.09,7,.31,9.26,4.11.22.35,2,3.29.9,6.16-.68,1.69-2,2.53-3.66,3.52A16.57,16.57,0,0,1,93,54C87.82,54.75,83.34,51.52,82.63,47.53Z"></path> <path class="cls-1" d="M62.59,93.52c-2.38-3.42.18-7.08,2.43-19.46.86-4.76.3-3.23,1.58-11.51,2.31-14.92,3.16-13.67,3.69-20.61.6-7.71-.35-10.57,2.15-14.37a15.75,15.75,0,0,1,7.13-5.65c3.9.2,9.58.55,16.46,1.17,10.21.92,11.72,1.41,13.17,2.19,6.94,3.74,10.74,13.15,10.15,21.44-1,14.17-14.57,20.89-15.14,21.16l-.69,3.66q4.55,10,9.08,20c0,.25.07,5.21-3.79,7.67-3.36,2.14-8.22,1.44-11.33-2L85.38,70l-3.26-2.73q-1.61,13.42-3.2,26.83a12.12,12.12,0,0,1-7.34,3C71.3,97.09,65.21,97.29,62.59,93.52Z"></path> <path class="cls-1" d="M142.12,27.35c11.61-.07,17.41-.1,21.78.28,2.92.25,7,.49,11.92.46a8.3,8.3,0,0,1,8.35,6.51c.06.32.1.65.13,1A8.93,8.93,0,0,1,179.56,44l-9.08.8a4.07,4.07,0,0,0-2.14,1.59,4.6,4.6,0,0,0-.36,3.38c.57,2.67.51,16.23,0,37.23,1.21,1.17,1.41,2.29,3,2.89,3.57,1.39,6.68.42,8.44.87A8.13,8.13,0,0,1,182.23,92a7.2,7.2,0,0,1,2.33,2.74c1,2.4-.67,6.35-4.57,9.11l-37.77,1.26a7.73,7.73,0,0,1-8.07-7.76v-.15a9.48,9.48,0,0,1,.56-2.83,7.92,7.92,0,0,1,7.58-4.95,7.49,7.49,0,0,0,4.13-1.14,8.24,8.24,0,0,0,3.12-4.48c2.77-8.09.77-32.76.6-34.74l0,0a7.18,7.18,0,0,0-4.91-3.63c-.88-.18-1.85-.39-2.88-.65-4.33-1.07-5.14-1.75-5.51-2.1-2.18-2.07-2.15-5.27-2.14-6.61,0-1,0-5.28,3-7.43A7.43,7.43,0,0,1,142.12,27.35Z"></path> <path class="cls-1" d="M196.07,28.76c-1.1,1.7-1.91,4.1.4,19.14.48,3.09.61,3.61,3,16.7,1.68,9.36,2.53,14.07,2.74,15.64.11.78.71,4.64,1.91,12.37.76,4.87,1.16,7.32,2.24,8.29,1.89,1.7,4,.94,14.27.15,7.74-.59,7.68-.25,10.29-.81a34,34,0,0,0,12.71-5.65C254.67,86.32,254.9,69.7,255,64.18a50.86,50.86,0,0,0-9.2-29.75c-2.84-3.94-6.26-8.69-12.69-11.63-9.13-4.17-18.09-1.86-24.31-.26C202.24,24.22,198.37,25.21,196.07,28.76Z"></path> <path class="cls-1" d="M212.17,41.36c-.47,1-.81,2.38.17,11.13.2,1.8.26,2.11,1.26,9.72.71,5.45,1.07,8.19,1.16,9.1,0,.45.3,2.7.81,7.2.32,2.83.49,4.26,1,4.82.8,1,1.71.55,6,.09,3.29-.35,3.27-.15,4.37-.47a13.07,13.07,0,0,0,5.4-3.29c4.7-4.81,4.8-14.48,4.83-17.69a38,38,0,0,0-3.91-17.31c-1.2-2.3-2.65-5.06-5.38-6.77-3.88-2.43-7.68-1.08-10.32-.15S213.15,39.29,212.17,41.36Z"></path> <path class="cls-1" d="M257.53,8.62c2.29-2.54,5.88-2.57,12.45-3.2.24,0,.5,0,.76,0a26,26,0,0,0,11-2.28c4.06-1.93,12-3.86,15,.89a5.65,5.65,0,0,1,.81,4.06c-1,6.5-.63,3.79-1.92,5.87-.53.85-3.08,1.18-11.27,3.72-5,1.55-6.64,1.82-8,3.61a7.92,7.92,0,0,0-1.46,5.42,8.64,8.64,0,0,0,3.55,5.7,11.75,11.75,0,0,0,7.56,2.43c3.39-.1,3.84-1.59,7.14-1.55,1.09,0,4.8.06,6.47,2.47,1.87,2.69.64,7.55-2.07,9.65-2,1.59-3.82.75-8.73,3.24a8,8,0,0,0-2.63,1.81,7.21,7.21,0,0,0-1.3,7.06c1.43,3.77,5.89,4.5,6.63,4.61,3.21.46,4.68-1.14,8.72-2.14a20.27,20.27,0,0,1,10.67-.1c2.06.61,4.37,1.28,5.43,3.31,1.26,2.42.32,5.93-2.33,8.92a58.49,58.49,0,0,1-14.69,5.48c-5.72,1.25-8.19.76-12.58,3a9.17,9.17,0,0,1-4.45,1.47c-3.43,0-6-2.66-6.93-3.62-6.07-6.29-6.52-18.15-11.82-34.78-2.2-6.9-3.32-14.17-6-20.87a18.91,18.91,0,0,1-1.4-9.72C256.28,11.17,256.47,9.79,257.53,8.62Z"></path> <path class="cls-1" d="M174.94,213.38c-1.62-3.5-2-8.36-2.71-17.94-.25-3.4-.14-2.74-.68-11.59-.5-8.24-.76-12.36-.88-13.25-.91-6.58-2-8.87-1.32-13.7.41-2.64.65-4.23,1.77-5.92,2.1-3.16,4.87-2.95,18.09-6,6.68-1.55,9.54-2.43,13.79-1.41a17.15,17.15,0,0,1,5.48,2.26c7.8,5,8.5,15.65,8.63,17.67a28.4,28.4,0,0,1-3.87,16c1.34.84,10,6.49,11.52,17.32,1.7,12-6.78,20.25-8.19,21.61-9.1,8.83-24.43,11-33.88,4.52A23.92,23.92,0,0,1,174.94,213.38Z"></path> <path class="cls-1" d="M184.91,177c-2.71-2.45-2.77-6.71-1.61-9.54a10.23,10.23,0,0,1,4-4.51c1.59-1.13,5.68-4,9.83-2.44.4.15,3.64,1.34,4.49,4.32.5,1.74-.06,3.25-.72,5a16.68,16.68,0,0,1-3.84,5.9C193.43,179.47,187.92,179.66,184.91,177Z"></path> <path class="cls-1" d="M187.94,205.53c-1.86-3.14-.67-7.22,1.28-9.59a10.31,10.31,0,0,1,5.19-3.12c1.85-.61,6.62-2.17,10.12.57.33.26,3.07,2.36,3,5.45,0,1.81-1,3.09-2.18,4.59a16.53,16.53,0,0,1-5.4,4.5C195.34,210.45,190,209,187.94,205.53Z"></path> <path class="cls-1" d="M230.32,143.22c2.53-2.3,6.1-2,12.7-2a6.85,6.85,0,0,1,.77,0,25.93,25.93,0,0,0,11.14-1.2c4.22-1.52,12.3-2.67,14.79,2.35a5.57,5.57,0,0,1,.42,4.11c-1.67,6.38-1,3.72-2.49,5.66-.6.79-3.18.88-11.58,2.6-5.14,1.06-6.78,1.16-8.32,2.82a7.86,7.86,0,0,0-2,5.25,8.68,8.68,0,0,0,3,6,11.78,11.78,0,0,0,7.28,3.15c3.38.23,4-1.21,7.26-.84,1.08.11,4.77.52,6.2,3.08,1.59,2.86-.1,7.58-3,9.41-2.19,1.38-3.88.38-9,2.37a7.68,7.68,0,0,0-2.79,1.55,7.2,7.2,0,0,0-2,6.89c1.06,3.89,5.43,5.06,6.15,5.23,3.16.78,4.77-.67,8.88-1.27a20.22,20.22,0,0,1,10.63.94c2,.81,4.23,1.7,5.09,3.83,1,2.52-.26,5.93-3.19,8.64a57.87,57.87,0,0,1-15.16,4c-5.81.69-8.22,0-12.81,1.8a9.09,9.09,0,0,1-4.57,1c-3.42-.33-5.72-3.23-6.55-4.28-5.42-6.85-4.71-18.69-8.36-35.77-1.52-7.08-1.93-14.42-4-21.36a18.73,18.73,0,0,1-.44-9.81C228.83,145.64,229.16,144.29,230.32,143.22Z"></path> <path class="cls-1" d="M30.36,134.15c3.31-2.55,7.91.95,17.38,3.71,9.13,2.67,22.41,4.55,31.6,5.3,3.57.29,7.65.5,10.07,3.52,2.16,2.7,2.68,7.21.74,9.94s-5.59,3-12.31,3.58c-5.28.49-6.74-.12-9,1.22-3.25,1.92-4.37,5.64-5,7.78-3,10.73-4,20.22-4.87,25.6-1.59,10.38-3.37,22.09-9.48,23.94a6.43,6.43,0,0,1-3.33.08,9.26,9.26,0,0,1-7-10.26c.73-5.95,1.52-10.88,2.17-14.59,1.3-7.36,1.44-15,3.71-22.12a21.05,21.05,0,0,0,.91-8.72,11.08,11.08,0,0,0-2.24-6.22c-.36-.43-1.18-1.34-5.08-3.27-5.1-2.53-5.53-1.88-7.16-3.24-3.78-3.13-3.81-8.48-3.8-8.91C27.74,140.47,27.78,136.15,30.36,134.15Z"></path> <path class="cls-1" d="M91.44,184.87c.93-18.67,1.24-21.4,3.62-25.13.63-1,8-12.08,20.61-12.07,12.08,0,19.34,10.13,20.33,11.57,4.13,6,4.21,14.51,4.22,31.35,0,10.85,0,16.37-2.06,20.9-.93,2.08-7.6,16.37-21.72,17.46-11,.85-20.26-6.82-24.25-14.31C90.43,211.35,90.24,209.12,91.44,184.87Z"></path> <path class="cls-1" d="M105.85,186.6c.39-10.67.52-12.24,1.51-14.37.26-.57,3.32-6.91,8.59-6.9,5,0,8.07,5.79,8.48,6.61,1.72,3.41,1.76,8.3,1.76,17.93,0,6.21,0,9.36-.86,11.95-.39,1.19-3.17,9.37-9.06,10-4.59.48-8.44-3.9-10.11-8.18C105.43,201.74,105.35,200.47,105.85,186.6Z"></path> </g> </g> </svg> 