<?xml version="1.0" encoding="UTF-8"?> <svg xmlns="http://www.w3.org/2000/svg" viewBox="0 0 33.72 75.79"> <defs> <style>.cls-1{fill:none;stroke:#231f20;stroke-miterlimit:10;stroke-width:0.5px;}.cls-2{fill:#231f20;}</style> </defs> <g id="Layer_2" data-name="Layer 2"> <g id="Layer_1-2" data-name="Layer 1"> <path class="cls-1" d="M1.64,7.08H1.55"></path> <path class="cls-1" d="M32.1,7.09a116.45,116.45,0,0,0-30.46,0l.75-4a1.76,1.76,0,0,1,.38-1,2,2,0,0,1,.91-.58,31.15,31.15,0,0,1,6.51-1C11.8.35,13.85.26,16.73.25h.14c2.87,0,5.06.1,6.67.21a31.15,31.15,0,0,1,6.51,1A2,2,0,0,1,31,2a1.83,1.83,0,0,1,.38,1Z"></path> <path class="cls-1" d="M33,12.31l-.41-.06a130.36,130.36,0,0,0-31.31,0l-.57.07,0-4.72a1.86,1.86,0,0,1,.38-.29,2.35,2.35,0,0,1,.5-.21h0a116.45,116.45,0,0,1,30.46,0,2.35,2.35,0,0,1,.5.21,2.07,2.07,0,0,1,.37.29Z"></path> <path class="cls-1" d="M32.6,12.25l0,.34h0v.12h0C31,31.56,29,51.06,27.47,69.89a5.9,5.9,0,0,1-.57,1.5,7,7,0,0,1-3.69,2.94,15.51,15.51,0,0,1-6.51,1.2h0a14.9,14.9,0,0,1-6.42-1.2,7.08,7.08,0,0,1-3.69-2.94A5.7,5.7,0,0,1,6,69.89C4.46,51.05,2.87,31.63,1.33,12.78v-.1h0l0-.44A130.36,130.36,0,0,1,32.6,12.25Z"></path> <path class="cls-1" d="M1.29,12.24l0,.44-.6-.37Z"></path> <path class="cls-1" d="M33,12.31l-.45.28,0-.34Z"></path> <line class="cls-1" x1="1.29" y1="12.24" x2="1.29" y2="12.23"></line> <line class="cls-1" x1="1.33" y1="12.73" x2="1.32" y2="12.68"></line> <line class="cls-1" x1="32.55" y1="12.72" x2="32.54" y2="12.79"></line> <line class="cls-1" x1="32.56" y1="12.59" x2="32.55" y2="12.72"></line> <line class="cls-1" x1="32.6" y1="12.25" x2="32.6" y2="12.25"></line> <path class="cls-2" d="M9.48,37.78c0,.39.28.93-.36,1-.21,0-.5,0-.61-.18A2.74,2.74,0,0,1,8.3,38c-.12-.55-.19-1.11-.26-1.67A8.16,8.16,0,0,1,8,34.66a8.69,8.69,0,0,1,.15-1.61v0c.1-.27.54-.29.77-.2s.37.16.34.5a7.51,7.51,0,0,0,0,2.17c.05.38.06.78.11,1.17S9.44,37.4,9.48,37.78Zm5.11-1.6a4.76,4.76,0,0,0-.86-1.13,3.28,3.28,0,0,1-.87-1.14.86.86,0,0,1,.41-1.14.74.74,0,0,1,.6,0c.32.17-.1.61.34.68h0c.44,0,.52-.59.41-.82a1.19,1.19,0,0,0-1-.58,2,2,0,0,0-1.7.76,1.92,1.92,0,0,0,.42,2.44c.44.53,1.78,1.54,1.37,2.3a.71.71,0,0,1-.82.38c-.34-.14-.21-.73-.14-1a.08.08,0,0,0,0-.09c0-.06-.06-.08-.12-.1a.43.43,0,0,0-.25,0,.27.27,0,0,0-.21.13.35.35,0,0,0-.07.12,1.26,1.26,0,0,0-.09,1,1.2,1.2,0,0,0,1,.61,2,2,0,0,0,1.5-.46,1.38,1.38,0,0,0,.31-1.46A3.74,3.74,0,0,0,14.59,36.18Zm4.29,1.4c.05.35,0,.83-.47.8s-.68-1.11-.8-1.49c0,0-1.13.13-1.23.13-.09.32-.16.92-.51,1.08s-.53-.32-.48-.62A27.59,27.59,0,0,1,16,34.05a12,12,0,0,1,.43-1.28c.14-.32.32-.71.77-.8s.76.42.82.74c.1.55.19.8.28,1.35ZM17.53,36.5c-.13-1-.26-2.09-.4-3.14a14.39,14.39,0,0,0-.72,3.24C16.81,36.57,17.17,36.52,17.53,36.5ZM21,32.23c-.21-.13-.66-.2-.79,0v0a8.26,8.26,0,0,0-.38,1.56,8,8,0,0,0-.16,1.63c0,.57,0,1.13,0,1.7a2.91,2.91,0,0,0,.11.71c.08.21.36.29.58.3.65,0,.5-.56.51-1s0-.75.05-1.12.05-.79.05-1.18a7.76,7.76,0,0,1,.27-2.14C21.33,32.46,21.33,32.45,21,32.23Zm4.14,4.5A10.3,10.3,0,0,1,23.92,38a1.53,1.53,0,0,1-1.41.42.59.59,0,0,1-.16-.07.26.26,0,0,1-.07-.15A12.09,12.09,0,0,1,22,36.66a10.51,10.51,0,0,1,.48-4.41s0-.11.1-.13.07,0,.1,0a1.6,1.6,0,0,1,.95.19,3.67,3.67,0,0,1,1.89,2.15A2.22,2.22,0,0,1,25.13,36.73Zm-.39-2.2a5.32,5.32,0,0,0-.45-.93,1.74,1.74,0,0,0-.36-.45,2.45,2.45,0,0,0-.5-.3,5.51,5.51,0,0,0-.11.92,7.47,7.47,0,0,0-.12.95c0,.49,0,1,0,1.46l0,.75c0,.09.12.62.06.68l.2-.14a5.47,5.47,0,0,0,1-1A1.88,1.88,0,0,0,24.74,34.53Z"></path> <path class="cls-2" d="M26.47,44.68a.52.52,0,0,0-.26-.31,3,3,0,0,0-1.83-.3,2.76,2.76,0,0,0-.95.28c-.15-.16-1.19-1.73-1.19-1.73-.31-.55-.45-1.44.23-1.8a.73.73,0,0,1,.81.12.92.92,0,0,1,.23.54c0,.26.24.59.55.5s.35-.58.31-.83a1.89,1.89,0,0,0-1-1.37,2,2,0,0,0-2.05.3,1.82,1.82,0,0,0-.29.27,2.74,2.74,0,0,0-.68,1.59c-.6.53-1.13,1.16-1.7,1.75-.18.17-.37.37-.56.57a3.36,3.36,0,0,1-1,.79c-.41.19-.52-.4-.58-.71A3.58,3.58,0,0,1,16.54,43a4.63,4.63,0,0,0,.83-.33,4.92,4.92,0,0,0,.66-.49,1.82,1.82,0,0,0,.43-.53,1.21,1.21,0,0,0-.78-1.59,2,2,0,0,0-1.84.61,4.07,4.07,0,0,0-.91,1.76,4.21,4.21,0,0,0-.14,1.69,2.27,2.27,0,0,0,.76,1.47,1.77,1.77,0,0,0,2.29-.07,11.37,11.37,0,0,0,1.46-1.31s0,0,0,0l.31-.32.64-.62c.06-.07.14-.14.23-.23l.06.11c.4.72,1,1.35,1.42,2.07a13.22,13.22,0,0,0-1.66,1.3,3.57,3.57,0,0,0-.73,1,1.63,1.63,0,0,0,0,1.19.25.25,0,0,0,0,.07h0a.16.16,0,0,0,0,.07h0l0,.06h0a1.1,1.1,0,0,0,.22.21h0l.06,0h0l.06,0h0a2,2,0,0,0,.89.2,3.8,3.8,0,0,0,1.81-.59,2.79,2.79,0,0,0,.93-1,3.53,3.53,0,0,0-.72-.3,2.1,2.1,0,0,0-.54-.09,2.4,2.4,0,0,1-.43.67,1.3,1.3,0,0,1-1,.45.54.54,0,0,1-.25-.06h0l0,0h0l0,0h0l0,0,0,0,0,0h0v0h0v-.06h0v0h0v0h0v0h0v0h0v0h0v0h0v0h0v0h0l0,0h0l0,0h0a2.06,2.06,0,0,1,.44-.54,8.15,8.15,0,0,1,1.35-1.11s0,0,.05,0a1.4,1.4,0,0,1,.09.31,1.59,1.59,0,0,1,0,.81l-.06.13.37,0a3.29,3.29,0,0,1,.89.34c.05-.08.09-.17.14-.26a2.7,2.7,0,0,0,.07-2.33s.85-.36.93-.36A2.06,2.06,0,0,1,26,45a.49.49,0,0,0,.35.06A.29.29,0,0,0,26.47,44.68Zm-9.23-3.79a.43.43,0,0,1,.44-.17.5.5,0,0,1,.29.34c0,.18-.17.32-.27.42a5.2,5.2,0,0,1-1.05.71A2.21,2.21,0,0,1,17.24,40.89Zm-2.1,7.33a2.93,2.93,0,0,0-1-.59c-.08,0-1-.17-1-.15v-.25A6.37,6.37,0,0,1,13.29,46c.23-1.39.39-2.8.7-4.17.09-.38.31-.9-.08-1.17a.73.73,0,0,0-.3-.11c-.41-.06-.79-.22-1.08.15-.81,1-1.41,2-2.16,3a2.86,2.86,0,0,1-.75.8c-.1,0-.23.09-.3,0s0-.15,0-.23a14.1,14.1,0,0,1,.37-1.49c.11-.4.31-.8.38-1.21.1-.7-.59-.72-1.07-.86s-.75.87-.89,1.27a8,8,0,0,0-.43,1.92A2.34,2.34,0,0,0,7.79,45a.55.55,0,0,0,.14.26,1.87,1.87,0,0,0,1.23.51c.87,0,1.55-1,2.06-1.67l.78-1a2.77,2.77,0,0,1-.14.86c-.22,1.11-.32,2.27-.52,3.41l-.7.39c-.27.19-.55.36-.82.56a6.62,6.62,0,0,0-1.28,1.46A4.46,4.46,0,0,0,8,51.21a2.37,2.37,0,0,0,.14,1.47,1.92,1.92,0,0,0,2.58.6,4.49,4.49,0,0,0,1.6-1.84,17.72,17.72,0,0,0,.83-2.89,1.65,1.65,0,0,1,1.52.34.81.81,0,0,0,.35.19.33.33,0,0,0,.36-.15C15.55,48.66,15.33,48.38,15.14,48.22ZM10.93,50.7a5.19,5.19,0,0,1-.5,1c-.51.75-1.34.45-1.28-.49a2.34,2.34,0,0,1,.37-1,4.75,4.75,0,0,1,1.77-1.63A7.29,7.29,0,0,1,10.93,50.7Z"></path> <polygon class="cls-2" points="20.65 22.53 23.45 20.64 21.95 19.65 20.65 22.53"></polygon> <polygon class="cls-2" points="18.9 21.87 20.74 18 18.79 17.69 18.9 21.87"></polygon> <polygon class="cls-2" points="17.29 22.02 17.02 18.87 15.58 19.07 17.29 22.02"></polygon> <path class="cls-2" d="M15.83,29.94a3.1,3.1,0,0,0,1.86.28v-.06l0-.24v-.33h0a2.47,2.47,0,0,1-1.56-.18A2.73,2.73,0,0,1,15.83,29.94Z"></path> <path class="cls-2" d="M15.79,24.69a2.91,2.91,0,0,0-1.28,4,3,3,0,0,0,1.68,1.41.51.51,0,0,0,.45-.34.37.37,0,0,0,0-.18,2.39,2.39,0,0,1-1.57-1.18,2.3,2.3,0,0,1,1-3.15,2.45,2.45,0,0,1,3.25,1,2.29,2.29,0,0,1-1,3.15,2.5,2.5,0,0,1-.7.23,1,1,0,0,1-.05.64,3,3,0,0,0,1.05-.32,2.91,2.91,0,0,0,1.28-4,3,3,0,0,0-1.17-1.18l1.49-.68L19.16,23l-.9-.29-1.55.27.79,1.42A3.13,3.13,0,0,0,15.79,24.69Z"></path> </g> </g> </svg> 